/* XPM */
static char *EGG_ROCK1750267054[] = {
/* columns rows colors chars-per-pixel */
"128 128 9 1 ",
"  c black",
". c #222034",
"X c #595652",
"o c #696A6A",
"O c #727170",
"+ c #155BBD",
"@ c #639BFF",
"# c #5FCDE4",
"$ c #CBDBFC",
/* pixels */
"++++++++++++++++++++++++++++++++++++++++++++++++++++++++++++++++++++++++++++++++++++++++++++++++++++++++++++++++++++++++++++++++",
"++++++++++++++++++++++++++++++++++++++++++++++++++++++++++++++++++++++++++++++++++++++++++++++++++++++++++++++++++++++++++++++++",
"++++++++++++++++++++++++++++++++++++++++++++++++++++++++++++++++++++++++++++++++++++++++++++++++++++++++++++++++++++++++++++++++",
"++++++++++++++++++++++++++++++++++++++++++++++++++++++++++++++++++++++++++++++++++++++++++++++++++++++++++++++++++++++++++++++++",
"++++++++++++++++++++++++++++++++++++++++++++++++++++++++++++++++++++++++++++++++++++++++++++++++++++++++++++++++++++++++++++++++",
"++++++++++++++++++++++++++++++++++++++++++++++++++++++++++++++++++++++++++++++++++++++++++++++++++++++++++++++++++++++++++++++++",
"++++++++++++++++++++++++++++++++++++++++++++++++++++++++++++++++++++++++++++++++++++++++++++++++++++++++++++++++++++++++++++++++",
"++++++++++++++++++++++++++++++++++++++++++++++++++++++++++++++++++++++++++++++++++++++++++++++++++++++++++++++++++++++++++++++++",
"++++++++++++++++++++++++++++++++++++++++########################################++++++++++++++++++++++++++++++++++++++++++++++++",
"+++++++++++++++++++++++++++++++++++++++##########################################+++++++++++++++++++++++++++++++++++++++++++++++",
"+++++++++++++++++++++++++++++++++++++++##########################################+++++++++++++++++++++++++++++++++++++++++++++++",
"++++++++++++++++++++++++++++++++++++++############################################++++++++++++++++++++++++++++++++++++++++++++++",
"++++++++++++++++++++++++++++++++++++++############################################++++++++++++++++++++++++++++++++++++++++++++++",
"+++++++++++++++++++++++++++++++++++++##############################################+++++++++++++++++++++++++++++++++++++++++++++",
"+++++++++++++++++++++++++++++++++++++##############################################+++++++++++++++++++++++++++++++++++++++++++++",
"++++++++++++++++++++++++++++++++++++################################################++++++++++++++++++++++++++++++++++++++++++++",
"+++++++++++++++++++++++XXXXXXXXXXXXX###########$$$$$$$$$$$$$$$$$$$$$$$$$$###########++++++++++++++++++++++++++++++++++++++++++++",
"+++++++++++++++++++++XXXXXXXXXXXXXX##########$$$$$$$$$$$$$$$$$$$$$$$$$$$$$$##########+++++++++++++++++++++++++++++++++++++++++++",
"+++++++++++++++++++XXXXXXXXXXXXXXXX########$$$$$$$$$$$$$$$$$$$$$$$$$$$$$$$$$$########+++++++++++++++++++++++++++++++++++++++++++",
"++++++++++++++++++XXXXXXXXXXXXXXX########$$$$$$$$$$$$$$$$$$$$$$$$$$$$$$$$$$$$$$########+++++++++++++++++++++++++++++++++++++++++",
"++++++++++++++++++XXXXXXXXXXXXX########$$$$$$$$$$$$$$$$$$$$$$$$$$$$$$$$$$$$$$$$$$########+++++++++++++++++++++++++++++++++++++++",
"+++++++++++++++++XXXXXXXXXXXX########$$$$$$$$$$$$$$$$$$$$$$$$$$$$$$$$$$$$$$$$$$$$$$########+++++++++++++++++++++++++++++++++++++",
"+++++++++++++++++XXXXXXXXXXXX########$$$$$$$$$$$$$$$$$$$$$$$$$$$$$$$$$$$$$$$$$$$$$$########+++++++++++++++++++++++++++++++++++++",
"++++++++++++++++XXXXXXXXXXXX########$$$$$$$$$$$$$$$$$$$$$$$$$$$$$$$$$$$$$$$$$$$$$$$$########++++++++++++++++++++++++++++++++++++",
"++++++++++++++++XXXXXXXXXXXX########$$$$$$$$$$$$$$$$$$$$$$$$$$$$$$$$$$$$$$$$$$$$$$$$########++++++++++++++++++++++++++++++++++++",
"+++++++++++++++XXXXXXXXXXXX########$$$$$$$$$$$$$$$$$$$$$$$$$$$$$$$$$$$$$$$$$$$$$$$$$$########+++++++++++++++++++++++++++++++++++",
"+++++++++++++++XXXXXXXXXXXX########$$$$$$$$$$$$$$$$$$$$$$$$$$$$$$$$$$$$$$$$$$$$$$$$$$########+++++++++++++++++++++++++++++++++++",
"++++++++++++++XXXXXXXXXXX########$$$$$$$$$$$$$$$$$$$$$$$$$$$$$$$$$$$$$$$$$$$$$$$$$$$$$$########+++++++++++++++++++++++++++++++++",
"++++++++++++++XXXXXXXXX########$$$$$$$$$$$$$$$$$$$$$$$$$$$$$$$$$$$$$$$$$$$$$$$$$$$$$$$$$$########+++++++++++++++++++++++++++++++",
"+++++++++++++XXXXXXXX########$$$$$$$$$$$$$$$$$$$$$$$$$$$$$$$$$$$$$$$$$$$$$$$$$$$$$$$$$$$$$$########+++++++++++++++++++++++++++++",
"+++++++++++++XXXXXX##########$$$$$$$$$$$$$$$$$$$$$$$$$$$$$$$$$$$$$$$$$$$$$$$$$$$$$$$$$$$$$$##########+++++++++++++++++++++++++++",
"++++++++++++XXXXX###########$$$$$$$$$$$$$$$$$$$$$$$$$$$$$$$$$$$$$$$$$$$$$$$$$$$$$$$$$$$$$$$$###########+++++++++++++++++++++++++",
"++++++++++++XXXX############$$$$$$$$$$$$$$$$$$$$$$$$$$$$$$$$$$$$$$$$$$$$$$$$$$$$$$$$$$$$$$$$############++++++++++++++++++++++++",
"+++++++++++XXXXX###########$$$$$$$$$$$$$$$$$$$$$$$$$$$$$$$$$$$$$$$$$$$$$$$$$$$$$$$$$$$$$$$$$$###########++++++++++++++++++++++++",
"+++++++++++XXXXX###########$$$$$$$$$$$$$$$$$$$$$$$$$$$$$$$$$$$$$$$$$$$$$$$$$$$$$$$$$$$$$$$$$$###########++++++++++++++++++++++++",
"++++++++++XXXXXX##########$$$$$$$$$$$$$$$$$$$$$$$$$$$$$$$$$$$$$$$$$$$$$$$$$$$$$$$$$$$$$$$$$$$$##########++++++++++++++++++++++++",
"++++++++++XXXXXX##########$$$$$$$$$$$$$$$$$$$$$$$$$$$$$$$$$$$$$$$$$$$$$$$$$$$$$$$$$$$$$$$$$$$$##########++++++++++++++++++++++++",
"+++++++++XXXXXXX#########$$$$$$$$$$$$$$$$$$$$$$$$$$$$$$$$$$$$$$$$$$$$$$$$$$$$$$$$$$$$$$$$$$$$$$#########++++++++++++++++++++++++",
"+++++++++XXXXXXX#########$$$$$$$$$$$$$$$$$$$$$$$$$$$$$$$$$$$$$$$$$$$$$$$$$$$$$$$$$$$$$$$$$$$$$$#########++++++++++++++++++++++++",
"++++++++XXXXXXXX########$$$$$$$$$$$$$$$$$$$$$$$$$$$$$$$$$$$$$$$$$$$$$$$$$$$$$$$$$$$$$$$$$$$$$$$$########++++++++++++++++++++++++",
"++++++++XXXXXXXX########$$$$$$$$$$$$$$$$$$$$$$$$$$$$$$$$$$$$$$$  $$$$$$$$$$$$$$$$$$$$$$$$$$$$$$$########++++++++++++++++++++++++",
"++++++++XXXXXXXX########$$$$$$$$$$$$$$$$$$$$$$$$$$$$$$$$$$$$$      $$$$$$$$$$$$$$$$$$$$$$$$$$$$$########++++++++++++++++++++++++",
"++++++++XXXXXXXX########$$$$$$$$$$$$$$$$$$$$$$$$$$$$$$$$$$$          $$$$$$$$$$$$$$$$$$$$$$$$$$$########++++++++++++++++++++++++",
"++++++++XXXXXXXX########$$$$$$$$$$$$$$$$$$$$$$$$$$$$$$$$$              $$$$$$$$$$$$$$$$$$$$$$$$$########++++++++++++++++++++++++",
"++++++++XXXXXXXX########$$$$$$$$$$$$$$$$$$$$$$$$$$$$$$$                  $$$$$$$$$$$$$$$$$$$$$$$########X+++++++++++++++++++++++",
"++++++++XXXXXXXX########$$$$$$$$$$$$$$$$$$$$$$$$$$$$$                      $$$$$$$$$$$$$$$$$$$$$########XXX+++++++++++++++++++++",
"++++++++XXXXXXXX########$$$$$$$$$$$$$$$$$$$$$$$$$$$                          $$$$$$$$$$$$$$$$$$$########XXX+++++++++++++++++++++",
"++++++++XXXXXXXX########$$$$$$$$$$$$$$$$$$$$$$$$$                             $$$$$$$$$$$$$$$$$$########XXXX++++++++++++++++++++",
"++++++++XXXXXXXX########$$$$$$$$$$$$$$$$$$$.....                              $$$$$$$$$$$$$$$$$$########XXXX++++++++++++++++++++",
"+++++++XXXXXXXXX########$$$$$$$$$$$$$$$$$.......                               $$$$$$$$$$$$$$$$$########XXXXX+++++++++++++++++++",
"+++++++XXXXXXXXX########$$$$$$$$$$$$$$$.........                               $$$$$$$$$$$$$$$$$########XXXXX+++++++++++++++++++",
"++++++XXXXXXXXXX########$$$$$$$$$$$$$$..........                                $$$$$$$$$$$$$$$$########XXXXXXX+++++++++++++++++",
"++++++XXXXXXXXXX########$$$$$$$$$$$$$$..........                                $$$$$$$$$$$$$$$$########XXXXXXXXX+++++++++++++++",
"+++++XXXXXXXXXXX########$$$$$$$$$$$$$...........                               $$$$$$$$$$$$$$$$$########XXXXXXXXXXX+++++++++++++",
"+++XXXXXXXXXXXXX########$$$$$$$$$$$.............                               $$$$$$$$$$$$$$$$$########XXXXXXXXXXX+++++++++++++",
"+XXXXXXXXXXXXXXX########$$$$$$$$$$..............                              $$$$$$$$$$$$$$$$$$########XXXXXXXXXXXX++++++++++++",
"XXXXXXXXXXXXXXXX########$$$$$$$$$$.............$$                             $$$$$$$$$$$$$$$$$$########XXXXXXXXXXXX++++++++++++",
"XXXXXXXXXXXXXXXO########$$$$$$$$$............$$$$$$                          $$$$$$$$$$$$$$$$$$$########XXXXXXXXXXXXX+++++++++++",
"XXXXXXXXXXXXXXXO########$$$$$$$$$..........$$$$$$$$$$                      $$$$$$$$$$$$$$$$$$$$$########XXXXXXXXXXXXX+++++++++++",
"XXXXXXXXXXXXXXOO########$$$$$$$$..........$$$$$$$$$$$$$                  $$$$$$$$$$$$$$$$$$$$$$$########XXXXXXXXXXXXXXX+++++++++",
"XXXXXXXXXXXXXXOO########$$$$$$$$..........$$$$$$$$$$$$$$$              $$$$$$$$$$$$$$$$$$$$$$$$$########OXXXXXXXXXXXXXXXX+++++++",
"XXXXXXXXXXXXXOOO########$$$$$$$$$........$$$$$$$$$$$$$$$$$$          $$$$$$$$$$$$$$$$$$$$$$$$$$$########OOOXXXXXXXXXXXXXXXX+++++",
"XXXXXXXXXXXXXOOO########$$$$$$$$$......$$$$$$$$$$$$$$$$$$$$$$      $$$$$$$$$$$$$$$$$$$$$$$$$$$$$########OOOXXXXXXXXXXXXXXXXXX+++",
"XXXXXXXXXXXXOOOO########$$$$$$$$$$$..$$$$$$$$$$$$$$$$$$$$$$$$$$  $$$$$$$$$$$$$$$$$$$$$$$$$$$$$$$########OOOOXXXXXXXXXXXXXXXXXXX+",
"XXXXXXXXXXXXOOOO########$$$$$$$$$$$$$$$$$$$$$$$$$$$$$$$$$$$$$$$$$$$$$$$$$$$$$$$$$$$$$$$$$$$$$$$$########OOOOXXXXXXXXXXXXXXXXXXXX",
"XXXXXXXXXXXOOOOO#########$$$$$$$$$$$$$$$$$$$$$$$$$$$$$$$$$$$$$$$$$$$$$$$$$$$$$$$$$$$$$$$$$$$$$$#########OOOOOXXXXXXXXXXXXXXXXXXX",
"XXXXXXXXXXXOOOOO#########$$$$$$$$$$$$$$$$$$$$$$$$$$$$$$$$$$$$$$$$$$$$$$$$$$$$$$$$$$$$$$$$$$$$$$#########OOOOOXXXXXXXXXXXXXXXXXXX",
"XXXXXXXXXXOOOOOO##########$$$$$$$$$$$$$$$$$$$$$$$$$$$$$$$$$$$$$$$$$$$$$$$$$$$$$$$$$$$$$$$$$$$$##########OOOOOOOXXXXXXXXXXXXXXXXX",
"XXXXXXXXXXOOOOOO##########$$$$$$$$$$$$$$$$$$$$$$$$$$$$$$$$$$$$$$$$$$$$$$$$$$$$$$$$$$$$$$$$$$$$##########OOOOOOOOOXXXXXXXXXXXXXXX",
"XXXXXXXXXOOOOOOO###########$$$$$$$$$$$$$$$$$$$$$$$$$$$$$$$$$$$$$$$$$$$$$$$$$$$$$$$$$$$$$$$$$$###########OOOOOOOOOOOXXXXXXXXXXXXX",
"XXXXXXXXXOOOOOOO###########$$$$$$$$$$$$$$$$$$$$$$$$$$$$$$$$$$$$$$$$$$$$$$$$$$$$$$$$$$$$$$$$$$###########OOOOOOOOOOOOOXXXXXXXXXXX",
"XXXXXXXXOOOOOOOO############$$$$$$$$$$$$$$$$$$$$$$$$$$$$$$$$$$$$$$$$$$$$$$$$$$$$$$$$$$$$$$$$############OOOOOOOOOOOOOOXXXXXXXXXX",
"XXXXXXXXOOOOOOOOO###########$$$$$$$$$$$$$$$$$$$$$$$$$$$$$$$$$$$$$$$$$$$$$$$$$$$$$$$$$$$$$$$$###########OOOOOOOOOOOOOOOXXXXXXXXXX",
"XXXXXXXXOOOOOOOOOOO##########$$$$$$$$$$$$$$$$$$$$$$$$$$$$$$$$$$$$$$$$$$$$$$$$$$$$$$$$$$$$$$##########OOOOOOOOOOOOOOOOOOXXXXXXXXX",
"XXXXXXXXOOOOOOOOOOOOO########$$$$$$$$$$$$$$$$$$$$$$$$$$$$$$$$$$$$$$$$$$$$$$$$$$$$$$$$$$$$$$########OOOOOOOOOOOOOOOOOOOOXXXXXXXXX",
"XXXXXXXXOOOOOOOOOOOOOOO########$$$$$$$$$$$$$$$$$$$$$$$$$$$$$$$$$$$$$$$$$$$$$$$$$$$$$$$$$$########OOOOOOOOOOOOOOOOOOOOOOOXXXXXXXX",
"XXXXXXXXOOOOOOOOOOOOOOOOO########$$$$$$$$$$$$$$$$$$$$$$$$$$$$$$$$$$$$$$$$$$$$$$$$$$$$$$########OOOOOOOOOOOOOOOOOOOOOOOOOXXXXXXXX",
"XXXXXXXXOOOOOOOOOOOOOOOOOOO########$$$$$$$$$$$$$$$$$$$$$$$$$$$$$$$$$$$$$$$$$$$$$$$$$$########OOOOOOOOOOOOOOOOOOOOOOOOOOXXXXXXXXX",
"XXXXXXXXOOOOOOOOOOOOOOOOOOO########$$$$$$$$$$$$$$$$$$$$$$$$$$$$$$$$$$$$$$$$$$$$$$$$$$########OOOOOOOOOOOOOOOOOOOOOOOOOOXXXXXXXXX",
"XXXXXXXXOOOOOOOOOOOOOOOOOOOO########$$$$$$$$$$$$$$$$$$$$$$$$$$$$$$$$$$$$$$$$$$$$$$$$########OOOOOOOOOOOOOOOOOOOOOOOOOXXXXXXXXXXX",
"XXXXXXXXOOOOOOOOOOOOOOOOOOOO########$$$$$$$$$$$$$$$$$$$$$$$$$$$$$$$$$$$$$$$$$$$$$$$$########OOOOOOOOOOOoooooooooXXXXXXXXXXXXXXXX",
"XXXXXXXXXOOOOOOOOOOOOOOOOOOOO########$$$$$$$$$$$$$$$$$$$$$$$$$$$$$$$$$$$$$$$$$$$$$$########OOOOOOOOOOooooooooooXXXXXXXXXXXXXXXXX",
"XXXXXXXXXOOOOOOOOOOOOOOOOOOOO########$$$$$$$$$$$$$$$$$$$$$$$$$$$$$$$$$$$$$$$$$$$$$$########OOOOOOOOooooooooooooXXXXXXXXXXXXXXXXX",
"XXXXXXXXXXOOOOOOOOOOOOOOOOOOOOO########$$$$$$$$$$$$$$$$$$$$$$$$$$$$$$$$$$$$$$$$$$########OOOOOOOOoooooooooooooXXXXXXXXXXXXXXXXXX",
"XXXXXXXXXXOOOOOOOOOOOOOOOOOOOOOOO########$$$$$$$$$$$$$$$$$$$$$$$$$$$$$$$$$$$$$$########OOOOOOOOoooooooooooooooXXXXXXXXXXXXXXXXXX",
"XXXXXXXXXXXOOOOOOOOOOOOOOOOOOOOOOOO########$$$$$$$$$$$$$$$$$$$$$$$$$$$$$$$$$$########OOOOOOOOooooooooooooooooXXXXXXXXXXXXXXXXXXX",
"XXXXXXXXXXXXXOOOOOOOOOOOOOOOOOOOOOO##########$$$$$$$$$$$$$$$$$$$$$$$$$$$$$$##########OOOOOOooooooooooooooooooXXXXXXXXXXXXXXXXXXX",
"XXXXXXXXXXXXXXXOOOOOOOOOOOOOOOOOOOOO###########$$$$$$$$$$$$$$$$$$$$$$$$$$###########OOOOOoooooooooooooooooooXXXXXXXXXXXXXXXXXXXX",
"XXXXXXXXXXXXXXXXXXXXXXXXoooooooooooo################################################ooooooooooooooooooooooooXXXXXXXXXXXXXXXXXXX@",
"XXXXXXXXXXXXXXXXXXXXXXXXXoooooooooooo##############################################ooooooooooooooooooooooooXXXXXXXXXXXXXXXXXX@@@",
"XXXXXXXXXXXXXXXXXXXXXXXXXoooooooooooo##############################################ooooooooooooooooooooooooXXXXXXXXXXXXXXXX@@@@@",
"XXXXXXXXXXXXXXXXXXXXXXXXXXoooooooooooo############################################oooooooooooooooooooooooXXXXXXXXXXXXXXXX@@@@@@@",
"XXXXXXXXXXXXXXXXXXXXXXXXXXoooooooooooo############################################oooooooooooooooooooooXXXXXXXXXXXXXXXX@@@@@@@@@",
"XXXXXXXXXXXXXXXXXXXXXXXXXXXoooooooooooo##########################################ooooooooooooooooooooXXXXXXXXXXXXXXXX@@@@@@@@@@@",
"XXXXXXXXXXXXXXXXXXXXXXXXXXXXXoooooooooo##########################################ooooooooooooooooooXXXXXXXXXXXXXXXXXX@@@@@@@@@@@",
"XXXXXXXXXXXXXXXXXXXXXXXXXXXXXXXooooooooo########################################oooooooooooooooooXXXXXXXXXXXXXXXXXXX@@@@@@@@@@@@",
"@XXXXXXXXXXXXXXXXXXXXXXXXXXXXXXXXooooooooooooooooooooooooooooooooooooooooooooooXXXXXXXXXXXXXXXXXXXXXXXXXXXXXXXXXXXXX@@@@@@@@@@@@",
"@@@XXXXXXXXXXXXXXXXXXXXXXXXXXXXXXXXooooooooooooooooooooooooooooooooooooooooooXXXXXXXXXXXXXXXXXXXXXXXXXXXXXXXXXXXXXX@@@@@@@@@@@@@",
"@@@@@XXXXXXXXXXXXXXXXXXXXXXXXXXXXXXXXooooooooooooooooooooooooooooooooooooooXXXXXXXXXXXXXXXXXXXXXXXXXXXXXXXXXXXXXXXX@@@@@@@@@@@@@",
"@@@@@@@XXXXXXXXXXXXXXXXXXXXXXXXXXXXXXXXooooooooooooooooooooooooooooooooooXXXXXXXXXXXXXXXXXXXXXXXXXXXXXXXXXXXXXXXX@@@@@@@@@@@@@@@",
"@@@@@@@@@XXXXXXXXXXXXXXXXXXXXXXXXXXXXXXXXooooooooooooooooooooooooooooooXXXXXXXXXXXXXXXXXXXXXXXXXXXXXXXXXXXXXXXX@@@@@@@@@@@@@@@@@",
"@@@@@@@@@@@XXXXXXXXXXXXXXXXXXXXXXXXXXXXXXXXooooooooooooooooooooooooooXXXXXXXXXXXXXXXXXXXXXXXXXXXXXXXXXXXXXXXX@@@@@@@@@@@@@@@@@@@",
"@@@@@@@@@@@@@XXXXXXXXXXXXXXXXXXXXXXXXXXXXXXXXooooooooooooooooooooooXXXXXXXXXXXXXXXXXXXXXXXXXXXXXXXXXXXXXXXX@@@@@@@@@@@@@@@@@@@@@",
"@@@@@@@@@@@@@@@XXXXXXXXXXXXXXXXXXXXXXXXXXXXXXXXooooooooooooooooooXXXXXXXXXXXXXXXXXXXXXXXXXXXXXXXXXXXXXXXX@@@@@@@@@@@@@@@@@@@@@@@",
"+@@@@@@@@@@@@@@@@@@@@@@@@XXXXXXXXXXXXXXXXXXXXXXXXXXXXXXXXXXXXXXXXXXXXXXXXXXXXXXXXXXXXXX@@@@@@@@@@@@@@@@@@@@@@@@@@@@@@@@+++++++++",
"+++@@@@@@@@@@@@@@@@@@@@@@@@XXXXXXXXXXXXXXXXXXXXXXXXXXXXXXXXXXXXXXXXXXXXXXXXXXXXXXXXXX@@@@@@@@@@@@@@@@@@@@@@@@@@@@@@@@+++++++++++",
"+++++@@@@@@@@@@@@@@@@@@@@@@@@XXXXXXXXXXXXXXXXXXXXXXXXXXXXXXXXXXXXXXXXXXXXXXXXXXXXXX@@@@@@@@@@@@@@@@@@@@@@@@@@@@@@@@+++++++++++++",
"+++++++@@@@@@@@@@@@@@@@@@@@@@@@XXXXXXXXXXXXXXXXXXXXXXXXXXXXXXXXXXXXXXXXXXXXXXXXXX@@@@@@@@@@@@@@@@@@@@@@@@@@@@@@@@+++++++++++++++",
"+++++++++@@@@@@@@@@@@@@@@@@@@@@@@XXXXXXXXXXXXXXXXXXXXXXXXXXXXXXXXXXXXXXXXXXXXXX@@@@@@@@@@@@@@@@@@@@@@@@@@@@@@@@+++++++++++++++++",
"+++++++++++@@@@@@@@@@@@@@@@@@@@@@@@XXXXXXXXXXXXXXXXXXXXXXXXXXXXXXXXXXXXXXXXXX@@@@@@@@@@@@@@@@@@@@@@@@@@@@@@@@+++++++++++++++++++",
"+++++++++++++@@@@@@@@@@@@@@@@@@@@@@@@XXXXXXXXXXXXXXXXXXXXXXXXXXXXXXXXXXXXXX@@@@@@@@@@@@@@@@@@@@@@@@@@@@@@@@+++++++++++++++++++++",
"+++++++++++++++@@@@@@@@@@@@@@@@@@@@@@@@XXXXXXXXXXXXXXXXXXXXXXXXXXXXXXXXXX@@@@@@@@@@@@@@@@@@@@@@@@@@@@@@@@+++++++++++++++++++++++",
"+++++++++++++++++++++++++@@@@@@@@@@@@@@@@@@@@@@@@@@@@@@@@@@@@@@@@@@@@@@@@@@@@@@@@@@@@@@+++++++++++++++++++++++++++++++++++++++++",
"+++++++++++++++++++++++++++@@@@@@@@@@@@@@@@@@@@@@@@@@@@@@@@@@@@@@@@@@@@@@@@@@@@@@@@@@+++++++++++++++++++++++++++++++++++++++++++",
"+++++++++++++++++++++++++++++@@@@@@@@@@@@@@@@@@@@@@@@@@@@@@@@@@@@@@@@@@@@@@@@@@@@@@+++++++++++++++++++++++++++++++++++++++++++++",
"+++++++++++++++++++++++++++++++@@@@@@@@@@@@@@@@@@@@@@@@@@@@@@@@@@@@@@@@@@@@@@@@@@+++++++++++++++++++++++++++++++++++++++++++++++",
"+++++++++++++++++++++++++++++++++@@@@@@@@@@@@@@@@@@@@@@@@@@@@@@@@@@@@@@@@@@@@@@+++++++++++++++++++++++++++++++++++++++++++++++++",
"+++++++++++++++++++++++++++++++++++@@@@@@@@@@@@@@@@@@@@@@@@@@@@@@@@@@@@@@@@@@+++++++++++++++++++++++++++++++++++++++++++++++++++",
"+++++++++++++++++++++++++++++++++++++@@@@@@@@@@@@@@@@@@@@@@@@@@@@@@@@@@@@@@+++++++++++++++++++++++++++++++++++++++++++++++++++++",
"+++++++++++++++++++++++++++++++++++++++@@@@@@@@@@@@@@@@@@@@@@@@@@@@@@@@@@+++++++++++++++++++++++++++++++++++++++++++++++++++++++",
"++++++++++++++++++++++++++++++++++++++++++++++++++++++++++++++++++++++++++++++++++++++++++++++++++++++++++++++++++++++++++++++++",
"++++++++++++++++++++++++++++++++++++++++++++++++++++++++++++++++++++++++++++++++++++++++++++++++++++++++++++++++++++++++++++++++",
"++++++++++++++++++++++++++++++++++++++++++++++++++++++++++++++++++++++++++++++++++++++++++++++++++++++++++++++++++++++++++++++++",
"++++++++++++++++++++++++++++++++++++++++++++++++++++++++++++++++++++++++++++++++++++++++++++++++++++++++++++++++++++++++++++++++",
"++++++++++++++++++++++++++++++++++++++++++++++++++++++++++++++++++++++++++++++++++++++++++++++++++++++++++++++++++++++++++++++++",
"++++++++++++++++++++++++++++++++++++++++++++++++++++++++++++++++++++++++++++++++++++++++++++++++++++++++++++++++++++++++++++++++",
"++++++++++++++++++++++++++++++++++++++++++++++++++++++++++++++++++++++++++++++++++++++++++++++++++++++++++++++++++++++++++++++++",
"++++++++++++++++++++++++++++++++++++++++++++++++++++++++++++++++++++++++++++++++++++++++++++++++++++++++++++++++++++++++++++++++"
};
