/* XPM */
static char *result[] = {
/* columns rows colors chars-per-pixel */
"128 128 5 1 ",
"  c black",
". c #323C39",
"X c #595652",
"o c #155BBD",
"O c #639BFF",
/* pixels */
"oooooooooooooooooooooooooooooooooooooooooooooooooooooooooooooooooooooooooooooooooooooooooooooooooooooooooooooooooooooooooooooooo",
"oooooooooooooooooooooooooooooooooooooooooooooooooooooooooooooooooooooooooooooooooooooooooooooooooooooooooooooooooooooooooooooooo",
"oooooooooooooooooooooooooooooooooooooooooooooooooooooooooooooooooooooooooooooooooooooooooooooooooooooooooooooooooooooooooooooooo",
"oooooooooooooooooooooooooooooooooooooooooooooooooooooooooooooooooooooooooooooooooooooooooooooooooooooooooooooooooooooooooooooooo",
"oooooooooooooooooooooooooooooooooooooooooooooooooooooooooooooooooooooooooooooooooooooooooooooooooooooooooooooooooooooooooooooooo",
"oooooooooooooooooooooooooooooooooooooooooooooooooooooooooooooooooooooooooooooooooooooooooooooooooooooooooooooooooooooooooooooooo",
"oooooooooooooooooooooooooooooooooooooooooooooooooooooooooooooooooooooooooooooooooooooooooooooooooooooooooooooooooooooooooooooooo",
"oooooooooooooooooooooooooooooooooooooooooooooooooooooooooooooooooooooooooooooooooooooooooooooooooooooooooooooooooooooooooooooooo",
"oooooooooooooooooooooooooooooooooooooooooooooooXXXXXXXXXXXXXXXXXXXXXXXXXXXXXXXXXXooooooooooooooooooooooooooooooooooooooooooooooo",
"oooooooooooooooooooooooooooooooooooooooooooooXXXXXXXXXXXXXXXXXXXXXXXXXXXXXXXXXXXXXXooooooooooooooooooooooooooooooooooooooooooooo",
"oooooooooooooooooooooooooooooooooooooooooooXXXXXXXXXXXXXXXXXXXXXXXXXXXXXXXXXXXXXXXXXXooooooooooooooooooooooooooooooooooooooooooo",
"oooooooooooooooooooooooooooooooooooooooooXXXXXXXXXXXXXXXXXXXXXXXXXXXXXXXXXXXXXXXXXXXXXXooooooooooooooooooooooooooooooooooooooooo",
"oooooooooooooooooooooooooooooooooooooooXXXXXXXXXXXXXXXXXXXXXXXXXXXXXXXXXXXXXXXXXXXXXXXXXXooooooooooooooooooooooooooooooooooooooo",
"oooooooooooooooooooooooooooooooooooooXXXXXXXXXXXXXXXXXXXXXXXXXXXXXXXXXXXXXXXXXXXXXXXXXXXXXXooooooooooooooooooooooooooooooooooooo",
"oooooooooooooooooooooooooooooooooooXXXXXXXXXXXXXXXXXXXXXXXXXXXXXXXXXXXXXXXXXXXXXXXXXXXXXXXXXXooooooooooooooooooooooooooooooooooo",
"oooooooooooooooooooooooooooooooooXXXXXXXXXXXXXXXXXXXXXXXXXXXXXXXXXXXXXXXXXXXXXXXXXXXXXXXXXXXXXXooooooooooooooooooooooooooooooooo",
"oooooooooooooooooooooooooooooooXXXXXXXXXXXXXXXXXXXXXXXXXXXXXXXXXXXXXXXXXXXXXXXXXXXXXXXXXXXXXXXXXXooooooooooooooooooooooooooooooo",
"oooooooooooooooooooooooooooooXXXXXXXXXXXXXXXXXXXXXXXXXXXXXXXXXXXXXXXXXXXXXXXXXXXXXXXXXXXXXXXXXXXXXXooooooooooooooooooooooooooooo",
"oooooooooooooooooooooooooooXXXXXXXXXXXXXXXXXXXXXXXXXXXXXXXXXXXXXXXXXXXXXXXXXXXXXXXXXXXXXXXXXXXXXXXXXXooooooooooooooooooooooooooo",
"oooooooooooooooooooooooooXXXXXXXXXXXXXXXXXXXXXXXXXXXXXXXXXXXXXXXXXXXXXXXXXXXXXXXXXXXXXXXXXXXXXXXXXXXXXXooooooooooooooooooooooooo",
"oooooooooooooooooooooooXXXXXXXXXXXXXXXXXXXXXXXXXXXXXXXXXXXXXXXXXXXXXXXXXXXXXXXXXXXXXXXXXXXXXXXXXXXXXXXXXXooooooooooooooooooooooo",
"oooooooooooooooooooooXXXXXXXXXXXXXXXXXXXXXXXXXXXXXXXXXXXXXXXXXXXXXXXXXXXXXXXXXXXXXXXXXXXXXXXXXXXXXXXXXXXXXXooooooooooooooooooooo",
"oooooooooooooooooooooXXXXXXXXXXXXXXXXXXXXXXXXXXXXXXXXXXXXXXXXXXXXXXXXXXXXXXXXXXXXXXXXXXXXXXXXXXXXXXXXXXXXXXooooooooooooooooooooo",
"ooooooooooooooooooooXXXXXXXXXXXXXXXXXXXXXXXXXXXXXXXXXXXXXXXXXXXXXXXXXXXXXXXXXXXXXXXXXXXXXXXXXXXXXXXXXXXXXXXXoooooooooooooooooooo",
"ooooooooooooooooooooXXXXXXXXXXXXXXXXXXXXXXXXXXX.                                .XXXXXXXXXXXXXXXXXXXXXXXXXXXoooooooooooooooooooo",
"oooooooooooooooooooXXXXXXXXXXXXXXXXXXXXXXXXXX...                                ...XXXXXXXXXXXXXXXXXXXXXXXXXXooooooooooooooooooo",
"oooooooooooooooooooXXXXXXXXXXXXXXXXXXXXXXXX.....                                .....XXXXXXXXXXXXXXXXXXXXXXXXooooooooooooooooooo",
"oooooooooooooooooXXXXXXXXXXXXXXXXXXXXXXXXX......                                ......XXXXXXXXXXXXXXXXXXXXXXXXXooooooooooooooooo",
"oooooooooooooooXXXXXXXXXXXXXXXXXXXXXXXXXXX......                                ......XXXXXXXXXXXXXXXXXXXXXXXXXXXooooooooooooooo",
"oooooooooooooXXXXXXXXXXXXXXXXXXXXXXXXXXXX.......                                .......XXXXXXXXXXXXXXXXXXXXXXXXXXXXooooooooooooo",
"oooooooooooooXXXXXXXXXXXXXXXXXXXXXXXXXXXX.......                                .......XXXXXXXXXXXXXXXXXXXXXXXXXXXXooooooooooooo",
"ooooooooooooXXXXXXXXXXXXXXXXXXXXXXXXXXXX........                                ........XXXXXXXXXXXXXXXXXXXXXXXXXXXXoooooooooooo",
"ooooooooooooXXXXXXXXXXXXXXXXXXXXXXXXXXX ........                                ........ XXXXXXXXXXXXXXXXXXXXXXXXXXXoooooooooooo",
"oooooooooooXXXXXXXXXXXXXXXXXXXXXXXXXX   ........                                ........   XXXXXXXXXXXXXXXXXXXXXXXXXXooooooooooo",
"oooooooooooXXXXXXXXXXXXXXXXXXXXXXXX     ........                                ........     XXXXXXXXXXXXXXXXXXXXXXXXooooooooooo",
"oooooooooXXXXXXXXXXXXXXXXXXXXXXXX       ........                                ........       XXXXXXXXXXXXXXXXXXXXXXXXooooooooo",
"oooooooXXXXXXXXXXXXXXXXXXXXXXXX         ........                                ........         XXXXXXXXXXXXXXXXXXXXXXXXooooooo",
"oooooXXXXXXXXXXXXXXXXXXXXXXXX           ........                                ........           XXXXXXXXXXXXXXXXXXXXXXXXooooo",
"oooXXXXXXXXXXXXXXXXXXXXXXXXXX           ........                                ........           XXXXXXXXXXXXXXXXXXXXXXXXXXooo",
"oXXXXXXXXXXXXXXXXXXXXXXXXXXX            ........                                ........            XXXXXXXXXXXXXXXXXXXXXXXXXXXo",
"XXXXXXXXXXXXXXXXXXXXXXXXXXXX            ........                                ........            XXXXXXXXXXXXXXXXXXXXXXXXXXXX",
"XXXXXXXXXXXXXXXXXXXXXXXXXXX             ........                                ........             XXXXXXXXXXXXXXXXXXXXXXXXXXX",
"XXXXXXXXXXXXXXXXXXXXXXXXXXX             ........                                ........             XXXXXXXXXXXXXXXXXXXXXXXXXXX",
"XXXXXXXXXXXXXXXXXXXXXXXXX               ........                                ........               XXXXXXXXXXXXXXXXXXXXXXXXX",
"XXXXXXXXXXXXXXXXXXXXXXX                 ........                                ........                 XXXXXXXXXXXXXXXXXXXXXXX",
"XXXXXXXXXXXXXXXXXXXXX                   ........                                ........                   XXXXXXXXXXXXXXXXXXXXX",
"XXXXXXXXXXXXXXXXXXXXX                   ........                                ........                   XXXXXXXXXXXXXXXXXXXXX",
"XXXXXXXXXXXXXXXXXXXX                    ........                                ........                    XXXXXXXXXXXXXXXXXXXX",
"XXXXXXXXXXXXXXXXXXXX                    ........                                ........                    XXXXXXXXXXXXXXXXXXXX",
"XXXXXXXXXXXXXXXXXXX                    ..........                              ..........                    XXXXXXXXXXXXXXXXXXX",
"XXXXXXXXXXXXXXXXXXX                    ..........                              ..........                    XXXXXXXXXXXXXXXXXXX",
"XXXXXXXXXXXXXXXXXX                    ............                            ............                    XXXXXXXXXXXXXXXXXX",
"XXXXXXXXXXXXXXXXXX                    ............                            ............                    XXXXXXXXXXXXXXXXXX",
"XXXXXXXXXXXXXXXXX                    ..............                          ..............                    XXXXXXXXXXXXXXXXX",
"XXXXXXXXXXXXXXXXX                  ..................                      ..................                  XXXXXXXXXXXXXXXXX",
"XXXXXXXXXXXXXXXX                 ......................                  ......................                 XXXXXXXXXXXXXXXX",
"XXXXXXXXXXXXXXXX           ..........................................................................           XXXXXXXXXXXXXXXX",
"XXXXXXXXXXXXXXXX         ..............................................................................         XXXXXXXXXXXXXXXX",
"XXXXXXXXXXXXXXXX       ..................................................................................       XXXXXXXXXXXXXXXX",
"XXXXXXXXXXXXXXXX      ....................................................................................      XXXXXXXXXXXXXXXX",
"XXXXXXXXXXXXXXXX      ....................................................................................      XXXXXXXXXXXXXXXX",
"XXXXXXXXXXXXXXXX     ......................................................................................     XXXXXXXXXXXXXXXX",
"XXXXXXXXXXXXXXXX   ..........................................................................................   XXXXXXXXXXXXXXXX",
"XXXXXXXXXXXXXXXX .............................................................................................. XXXXXXXXXXXXXXXX",
"XXXXXXXXXXXXXXXX...............  ......................                  ......................  ...............XXXXXXXXXXXXXXXX",
"XXXXXXXXXXXXXXXX.............      ..................                      ..................      .............XXXXXXXXXXXXXXXX",
"XXXXXXXXXXXXXXXX...........          ..............                          ..............          ...........XXXXXXXXXXXXXXXX",
"XXXXXXXXXXXXXXXX..........            ............                            ............            ..........XXXXXXXXXXXXXXXX",
"XXXXXXXXXXXXXXXX..........            ............                            ............            ..........XXXXXXXXXXXXXXXX",
"XXXXXXXXXXXXXXXX.........              ..........                              ..........              .........XXXXXXXXXXXXXXXX",
"XXXXXXXXXXXXXXXX.......                ..........                              ..........                .......XXXXXXXXXXXXXXXX",
"XXXXXXXXXXXXXXXX.....                   ........                                ........                   .....XXXXXXXXXXXXXXXX",
"XXXXXXXXXXXXXXXX                        ........                                ........                        XXXXXXXXXXXXXXXX",
"XXXXXXXXXXXXXXXXX                       ........                                ........                       XXXXXXXXXXXXXXXXX",
"XXXXXXXXXXXXXXXXX                       ........                                ........                       XXXXXXXXXXXXXXXXX",
"XXXXXXXXXXXXXXXXXX                      ........                                ........                      XXXXXXXXXXXXXXXXXX",
"XXXXXXXXXXXXXXXXXX                      ........                                ........                      XXXXXXXXXXXXXXXXXX",
"XXXXXXXXXXXXXXXXXXX                     ........                                ........                     XXXXXXXXXXXXXXXXXXX",
"XXXXXXXXXXXXXXXXXXX                     ........                                ........                     XXXXXXXXXXXXXXXXXXX",
"XXXXXXXXXXXXXXXXXXXX                    ........                                ........                    XXXXXXXXXXXXXXXXXXXX",
"XXXXXXXXXXXXXXXXXXXX                    ........                                ........                    XXXXXXXXXXXXXXXXXXXX",
"XXXXXXXXXXXXXXXXXXXXX                   ........                                ........                   XXXXXXXXXXXXXXXXXXXXX",
"XXXXXXXXXXXXXXXXXXXXX                   ........                                ........                   XXXXXXXXXXXXXXXXXXXXX",
"XXXXXXXXXXXXXXXXXXXXXXX                 ........                                ........                 XXXXXXXXXXXXXXXXXXXXXXX",
"XXXXXXXXXXXXXXXXXXXXXXXXX               ........                                ........               XXXXXXXXXXXXXXXXXXXXXXXXX",
"XXXXXXXXXXXXXXXXXXXXXXXXXXX             ........                                ........             XXXXXXXXXXXXXXXXXXXXXXXXXXX",
"XXXXXXXXXXXXXXXXXXXXXXXXXXX             ........                                ........             XXXXXXXXXXXXXXXXXXXXXXXXXXX",
"XXXXXXXXXXXXXXXXXXXXXXXXXXXX            ........                                ........            XXXXXXXXXXXXXXXXXXXXXXXXXXXX",
"OXXXXXXXXXXXXXXXXXXXXXXXXXXX            ........                                ........            XXXXXXXXXXXXXXXXXXXXXXXXXXXO",
"OOOXXXXXXXXXXXXXXXXXXXXXXXXXX           ........                                ........           XXXXXXXXXXXXXXXXXXXXXXXXXXOOO",
"OOOOOXXXXXXXXXXXXXXXXXXXXXXXX           ........                                ........           XXXXXXXXXXXXXXXXXXXXXXXXOOOOO",
"OOOOOOOXXXXXXXXXXXXXXXXXXXXXXXX         ........                                ........         XXXXXXXXXXXXXXXXXXXXXXXXOOOOOOO",
"OOOOOOOOOXXXXXXXXXXXXXXXXXXXXXXXX       ........                                ........       XXXXXXXXXXXXXXXXXXXXXXXXOOOOOOOOO",
"OOOOOOOOOOOXXXXXXXXXXXXXXXXXXXXXXXX     ........                                ........     XXXXXXXXXXXXXXXXXXXXXXXXOOOOOOOOOOO",
"OOOOOOOOOOOXXXXXXXXXXXXXXXXXXXXXXXXXX   ........                                ........   XXXXXXXXXXXXXXXXXXXXXXXXXXOOOOOOOOOOO",
"OOOOOOOOOOOOXXXXXXXXXXXXXXXXXXXXXXXXXXX ........                                ........ XXXXXXXXXXXXXXXXXXXXXXXXXXXOOOOOOOOOOOO",
"OOOOOOOOOOOOXXXXXXXXXXXXXXXXXXXXXXXXXXXX........                                ........XXXXXXXXXXXXXXXXXXXXXXXXXXXXOOOOOOOOOOOO",
"OOOOOOOOOOOOOXXXXXXXXXXXXXXXXXXXXXXXXXXXX.......                                .......XXXXXXXXXXXXXXXXXXXXXXXXXXXXOOOOOOOOOOOOO",
"OOOOOOOOOOOOOXXXXXXXXXXXXXXXXXXXXXXXXXXXX.......                                .......XXXXXXXXXXXXXXXXXXXXXXXXXXXXOOOOOOOOOOOOO",
"OOOOOOOOOOOOOOOXXXXXXXXXXXXXXXXXXXXXXXXXXX......                                ......XXXXXXXXXXXXXXXXXXXXXXXXXXXOOOOOOOOOOOOOOO",
"OOOOOOOOOOOOOOOOOXXXXXXXXXXXXXXXXXXXXXXXXX......                                ......XXXXXXXXXXXXXXXXXXXXXXXXXOOOOOOOOOOOOOOOOO",
"OOOOOOOOOOOOOOOOOOOXXXXXXXXXXXXXXXXXXXXXXXX.....                                .....XXXXXXXXXXXXXXXXXXXXXXXXOOOOOOOOOOOOOOOOOOO",
"OOOOOOOOOOOOOOOOOOOXXXXXXXXXXXXXXXXXXXXXXXXXX...                                ...XXXXXXXXXXXXXXXXXXXXXXXXXXOOOOOOOOOOOOOOOOOOO",
"OOOOOOOOOOOOOOOOOOOOXXXXXXXXXXXXXXXXXXXXXXXXXXX.                                .XXXXXXXXXXXXXXXXXXXXXXXXXXXOOOOOOOOOOOOOOOOOOOO",
"oOOOOOOOOOOOOOOOOOOOXXXXXXXXXXXXXXXXXXXXXXXXXXXXXXXXXXXXXXXXXXXXXXXXXXXXXXXXXXXXXXXXXXXXXXXXXXXXXXXXXXXXXXXXOOOOOOOOOOOOOOOOOOOo",
"oooOOOOOOOOOOOOOOOOOOXXXXXXXXXXXXXXXXXXXXXXXXXXXXXXXXXXXXXXXXXXXXXXXXXXXXXXXXXXXXXXXXXXXXXXXXXXXXXXXXXXXXXXOOOOOOOOOOOOOOOOOOooo",
"oooooOOOOOOOOOOOOOOOOXXXXXXXXXXXXXXXXXXXXXXXXXXXXXXXXXXXXXXXXXXXXXXXXXXXXXXXXXXXXXXXXXXXXXXXXXXXXXXXXXXXXXXOOOOOOOOOOOOOOOOooooo",
"oooooooOOOOOOOOOOOOOOOOXXXXXXXXXXXXXXXXXXXXXXXXXXXXXXXXXXXXXXXXXXXXXXXXXXXXXXXXXXXXXXXXXXXXXXXXXXXXXXXXXXOOOOOOOOOOOOOOOOooooooo",
"oooooooooOOOOOOOOOOOOOOOOXXXXXXXXXXXXXXXXXXXXXXXXXXXXXXXXXXXXXXXXXXXXXXXXXXXXXXXXXXXXXXXXXXXXXXXXXXXXXXOOOOOOOOOOOOOOOOooooooooo",
"oooooooooooOOOOOOOOOOOOOOOOXXXXXXXXXXXXXXXXXXXXXXXXXXXXXXXXXXXXXXXXXXXXXXXXXXXXXXXXXXXXXXXXXXXXXXXXXXOOOOOOOOOOOOOOOOooooooooooo",
"oooooooooooOOOOOOOOOOOOOOOOOOXXXXXXXXXXXXXXXXXXXXXXXXXXXXXXXXXXXXXXXXXXXXXXXXXXXXXXXXXXXXXXXXXXXXXXOOOOOOOOOOOOOOOOOOooooooooooo",
"ooooooooooooOOOOOOOOOOOOOOOOOOOXXXXXXXXXXXXXXXXXXXXXXXXXXXXXXXXXXXXXXXXXXXXXXXXXXXXXXXXXXXXXXXXXXOOOOOOOOOOOOOOOOOOOoooooooooooo",
"ooooooooooooOOOOOOOOOOOOOOOOOOOOOXXXXXXXXXXXXXXXXXXXXXXXXXXXXXXXXXXXXXXXXXXXXXXXXXXXXXXXXXXXXXXOOOOOOOOOOOOOOOOOOOOOoooooooooooo",
"oooooooooooooOOOOOOOOOOOOOOOOOOOOOOXXXXXXXXXXXXXXXXXXXXXXXXXXXXXXXXXXXXXXXXXXXXXXXXXXXXXXXXXXOOOOOOOOOOOOOOOOOOOOOOooooooooooooo",
"oooooooooooooOOOOOOOOOOOOOOOOOOOOOOOOXXXXXXXXXXXXXXXXXXXXXXXXXXXXXXXXXXXXXXXXXXXXXXXXXXXXXXOOOOOOOOOOOOOOOOOOOOOOOOooooooooooooo",
"oooooooooooooooOOOOOOOOOOOOOOOOOOOOOOOOXXXXXXXXXXXXXXXXXXXXXXXXXXXXXXXXXXXXXXXXXXXXXXXXXXOOOOOOOOOOOOOOOOOOOOOOOOooooooooooooooo",
"oooooooooooooooooOOOOOOOOOOOOOOOOOOOOOOOOXXXXXXXXXXXXXXXXXXXXXXXXXXXXXXXXXXXXXXXXXXXXXXOOOOOOOOOOOOOOOOOOOOOOOOooooooooooooooooo",
"oooooooooooooooooooOOOOOOOOOOOOOOOOOOOOOOOOXXXXXXXXXXXXXXXXXXXXXXXXXXXXXXXXXXXXXXXXXXOOOOOOOOOOOOOOOOOOOOOOOOooooooooooooooooooo",
"oooooooooooooooooooooOOOOOOOOOOOOOOOOOOOOOOOOXXXXXXXXXXXXXXXXXXXXXXXXXXXXXXXXXXXXXXOOOOOOOOOOOOOOOOOOOOOOOOooooooooooooooooooooo",
"oooooooooooooooooooooooOOOOOOOOOOOOOOOOOOOOOOOOXXXXXXXXXXXXXXXXXXXXXXXXXXXXXXXXXXOOOOOOOOOOOOOOOOOOOOOOOOooooooooooooooooooooooo",
"oooooooooooooooooooooooooOOOOOOOOOOOOOOOOOOOOOOOOOOOOOOOOOOOOOOOOOOOOOOOOOOOOOOOOOOOOOOOOOOOOOOOOOOOOOOooooooooooooooooooooooooo",
"oooooooooooooooooooooooooooOOOOOOOOOOOOOOOOOOOOOOOOOOOOOOOOOOOOOOOOOOOOOOOOOOOOOOOOOOOOOOOOOOOOOOOOOOooooooooooooooooooooooooooo",
"oooooooooooooooooooooooooooooOOOOOOOOOOOOOOOOOOOOOOOOOOOOOOOOOOOOOOOOOOOOOOOOOOOOOOOOOOOOOOOOOOOOOOooooooooooooooooooooooooooooo",
"ooooooooooooooooooooooooooooooOOOOOOOOOOOOOOOOOOOOOOOOOOOOOOOOOOOOOOOOOOOOOOOOOOOOOOOOOOOOOOOOOOOOoooooooooooooooooooooooooooooo",
"ooooooooooooooooooooooooooooooOOOOOOOOOOOOOOOOOOOOOOOOOOOOOOOOOOOOOOOOOOOOOOOOOOOOOOOOOOOOOOOOOOOOoooooooooooooooooooooooooooooo",
"oooooooooooooooooooooooooooooooOOOOOOOOOOOOOOOOOOOOOOOOOOOOOOOOOOOOOOOOOOOOOOOOOOOOOOOOOOOOOOOOOOooooooooooooooooooooooooooooooo",
"oooooooooooooooooooooooooooooooOOOOOOOOOOOOOOOOOOOOOOOOOOOOOOOOOOOOOOOOOOOOOOOOOOOOOOOOOOOOOOOOOOooooooooooooooooooooooooooooooo",
"ooooooooooooooooooooooooooooooooOOOOOOOOOOOOOOOOOOOOOOOOOOOOOOOOOOOOOOOOOOOOOOOOOOOOOOOOOOOOOOOOoooooooooooooooooooooooooooooooo"
};
