/* XPM */
static char *_2e2dba3d96d452da7c0991dacdd1e86Wy3pBbAdTh6nnyDR[] = {
/* columns rows colors chars-per-pixel */
"128 128 14 1 ",
"  c #595652",
". c #476A5F",
"X c #696A6A",
"o c #727170",
"O c #54AD6E",
"+ c #5AB56F",
"@ c #52A273",
"# c #5EB773",
"$ c #71B46A",
"% c #155BBD",
"& c #7AC08C",
"* c #639BFF",
"= c #BEA598",
"- c #96D0A4",
/* pixels */
"%%%%%%%%%%%%%%%%%%%%%%%%%%%%%%%%%%%%%%%%%%%%%%%%%%%%%%%%%%%%%%%%%%%%%%%%%%%%%%%%%%%%%%%%%%%%%%%%%%%%%%%%%%%%%%%%%%%%%%%%%%%%%%%%",
"%%%%%%%%%%%%%%%%%%%%%%%%%%%%%%%%%%%%%%%%%%%%%%%%%%%%%%%%%%%%%%%%%%%%%%%%%%%%%%%%%%%%%%%%%%%%%%%%%%%%%%%%%%%%%%%%%%%%%%%%%%%%%%%%",
"%%%%%%%%%%%%%%%%%%%%%%%%%%%%%%%%%%%%%%%%%%%%%%%%%%%%%%%%%%%%%%%%%%%%%%%%%%%%%%%%%%%%%%%%%%%%%%%%%%%%%%%%%%%%%%%%%%%%%%%%%%%%%%%%",
"%%%%%%%%%%%%%%%%%%%%%%%%%%%%%%%%%%%%%%%%%%%%%%%%&&&&&&&&&&&&&&++++++%%%%%%%%%%%%&&&&&&++++++%%%%%%%%%%%%%%%%%%%%%%%%%%%%%%%%%%%%",
"%%%%%%%%%%%%%%%%%%%%%%%%%%%%%%%%%%%%%%%%%%%%%%%&&&&&&&&&&&&&&&+++++++%%%%%%%%%&&&&&&&&+++++++%%%%%%%%%%%%%%%%%%%%%%%%%%%%%%%%%%%",
"%%%%%%%%%%%%%%%%%%%%%%%%%%%%%%%%%%%%%%%%%%%%%%&&&&&&&&&&&&&&&&++++++++%%%%%%%%&&&&&&&&++++++++%%%%%%%%%%%%%%%%%%%%%%%%%%%%%%%%%%",
"%%%%%%%%%%%%%%%%%%%%%%%%%%%%%%%%%%%%%%%%%%%%%%&&&&&&&&&&&&&&&&++++++++%%%%%%%%&&&&&&&&++++++++%%%%%%%%%%%%%%%%%%%%%%%%%%%%%%%%%%",
"%%%%%%%%%%%%%%%%%%%%%%%%%%%%%%%%%%%%%%%%%%%%%%&&&&&&&&&&&&&&&&++++++++%%%%%%%%&&&&&&&&++++++++%%%%%%%%%%%%%%%%%%%%%%%%%%%%%%%%%%",
"%%%%%%%%%%%%%%%%%%%%%%%%%%%%%%%%%%%%%%%%%%%%%%&&&&&&&&&&&&&&&&++++++++%%%%%%%%&&&&&&&&++++++++%%%%%%%%%%%%%%%%%%%%%%%%%%%%%%%%%%",
"%%%%%%%%%%%%%%%%%%%%%%%%%%%%%%%%%%%%%%%%%%%%%%&&&&&&&&&&&&&&&&++++++++%%%%%%%%&&&&&&&&++++++++%%%%%%%%%%%%%%%%%%%%%%%%%%%%%%%%%%",
"%%%%%%%%%%%%%%%%%%%%%%%%%%%%%%%%%%%%%%%%%%%%%%&&&&&&&&&&&&&&&&++++++++%%%%%%%%&&&&&&&&++++++++%%%%%%%%%%%%%%%%%%%%%%%%%%%%%%%%%%",
"%%%%%%%%%%%%%%%%%%%%%%%%%%%%%%%%%%%%%%%%&&&&&&&&######........++++++++@@@@@@@@########......++++++++%%%%%%%%%%%%%%%%%%%%%%%%%%%%",
"%%%%%%%%%%%%%%%%%%%%%%%%%%%%%%%%%%%%%%%&&&&&&&&#######........++++++++@@@@@@@@########.......++++++++%%%%%%%%%%%%%%%%%%%%%%%%%%%",
"%%%%%%%%%%%%%%%%%%%%%%%%%%%%%%%%%%%%%%&&&&&&&&########........++++++++@@@@@@@@########........++++++++%%%%%%%%%%%%%%%%%%%%%%%%%%",
"%%%%%%%%%%%%%%%%%%%%%%%%%%%%%%%%%%%%%%&&&&&&&&########........++++++++@@@@@@@@########........++++++++%%%%%%%%%%%%%%%%%%%%%%%%%%",
"%%%%%%%%%%%%%%%%%%%%%%%%%%%%%%%%%%%%%%&&&&&&&&########........++++++++@@@@@@@@########........++++++++%%%%%%%%%%%%%%%%%%%%%%%%%%",
"%%%%%%%%%%%%%%%%%%%%%%%               &&&&&&&&########........++++++++@@@@@@@@########........++++++++%%%%%%%%%%%%%%%%%%%%%%%%%%",
"%%%%%%%%%%%%%%%%%%%%%                 &&&&&&&&########........++++++++@@@@@@@@########........++++++++%%%%%%%%%%%%%%%%%%%%%%%%%%",
"%%%%%%%%%%%%%%%%%%%                   &&&&&&&&########........++++++++@@@@@@@@########........++++++++%%%%%%%%%%%%%%%%%%%%%%%%%%",
"%%%%%%%%%%%%%%%%%%              &&&&&&&&########======OOOOOOOO++++++++++++++++++++++++OOOOOOOO======++++++++%%%%%%%%%%%%%%%%%%%%",
"%%%%%%%%%%%%%%%%%%             &&&&&&&&########=======OOOOOOOO++++++++++++++++++++++++OOOOOOOO=======++++++++%%%%%%%%%%%%%%%%%%%",
"%%%%%%%%%%%%%%%%%             &&&&&&&&########========OOOOOOOO++++++++++++++++++++++++OOOOOOOO========++++++++%%%%%%%%%%%%%%%%%%",
"%%%%%%%%%%%%%%%%%             &&&&&&&&########========OOOOOOOO++++++++++++++++++++++++OOOOOOOO========++++++++%%%%%%%%%%%%%%%%%%",
"%%%%%%%%%%%%%%%%              &&&&&&&&########========OOOOOOOO++++++++++++++++++++++++OOOOOOOO========++++++++%%%%%%%%%%%%%%%%%%",
"%%%%%%%%%%%%%%%%              &&&&&&&&########========OOOOOOOO++++++++++++++++++++++++OOOOOOOO========++++++++%%%%%%%%%%%%%%%%%%",
"%%%%%%%%%%%%%%%               &&&&&&&&########========OOOOOOOO++++++++++++++++++++++++OOOOOOOO========++++++++%%%%%%%%%%%%%%%%%%",
"%%%%%%%%%%%%%%%               &&&&&&&#########========OOOOOOO++++++++++++++++++++++++++OOOOOOO========++++++++%%%%%%%%%%%%%%%%%%",
"%%%%%%%%%%%%%%          @@@@@@#########+++++++$$$$$$$$+++++++++++++++++..............+++++++++$$$$$$$$++++++++%%%%%%%%%%%%%%%%%%",
"%%%%%%%%%%%%%%         @@@@@@@########++++++++$$$$$$$$++++++++++++++++................++++++++$$$$$$$$++++++++%%%%%%%%%%%%%%%%%%",
"%%%%%%%%%%%%%         @@@@@@@@########++++++++$$$$$$$$++++++++++++++++................++++++++$$$$$$$$++++++++%%%%%%%%%%%%%%%%%%",
"%%%%%%%%%%%%%         @@@@@@@@########++++++++$$$$$$$$++++++++++++++++................++++++++$$$$$$$$++++++++%%%%%%%%%%%%%%%%%%",
"%%%%%%%%%%%%          @@@@@@@@########++++++++$$$$$$$$++++++++++++++++................++++++++$$$$$$$$++++++++%%%%%%%%%%%%%%%%%%",
"%%%%%%%%%%%%          @@@@@@@@########++++++++$$$$$$$$++++++++++++++++................++++++++$$$$$$$$++++++++%%%%%%%%%%%%%%%%%%",
"%%%%%%%%%%%           @@@@@@@@########++++++++$$$$$$$$++++++++++++++++................++++++++$$$$$$$+++++++++%%%%%%%%%%%%%%%%%%",
"%%%%%%%%%%%           @@@@@@@@#######++++++++++$$$$$$+++++++++++++++++................+++++++++$$$$$$+++++++++%%%%%%%%%%%%%%%%%%",
"%%%%%%%%%%      @@@@@@@@@@@@@@++++++++++++++++++++++++++++++++++++++++OOOOOOOOOOOOOOOO++++++++++++++++++++++++++++++%%%%%%%%%%%%",
"%%%%%%%%%%     @@@@@@@@@@@@@@@++++++++++++++++++++++++++++++++++++++++OOOOOOOOOOOOOOOO+++++++++++++++++++++++++++++++%%%%%%%%%%%",
"%%%%%%%%%     @@@@@@@@@@@@@@@@++++++++++++++++++++++++++++++++++++++++OOOOOOOOOOOOOOOO++++++++++++++++++++++++++++++++%%%%%%%%%%",
"%%%%%%%%%     @@@@@@@@@@@@@@@@++++++++++++++++++++++++++++++++++++++++OOOOOOOOOOOOOOOO++++++++++++++++++++++++++++++++%%%%%%%%%%",
"%%%%%%%%      @@@@@@@@@@@@@@@@++++++++++++++++++++++++++++++++++++++++OOOOOOOOOOOOOOOO++++++++++++++++++++++++++++++++%%%%%%%%%%",
"%%%%%%%%      @@@@@@@@@@@@@@@@++++++++++++++++++++++++++++++++++++++++OOOOOOOOOOOOOOOO++++++++++++++++++++++++++++++++%%%%%%%%%%",
"%%%%%%%%      @@@@@@@@@@@@@@@@++++++++++++++++++++++++++++++++++++++++OOOOOOOOOOOOOOOO++++++++++++++++++++++++++++++++%%%%%%%%%%",
"%%%%%%%%      @@@@@@@@@@@@@@@++++++++++++++++++++++++++++++++++++++++++OOOOOOOOOOOOOO+++++++++++++++++++++++++++++++++%%%%%%%%%%",
"%%%%%%%%      @@@@@@@@@@++++++++++++++++++++++++++++++++++++++++++++++++++++++++++++++++++++++++++++++++++++++++++++++%%%%%%%%%%",
"%%%%%%%%      @@@@@@@@@+++++++++++++++++++++++++++++++++++++++++++++++++++++++++++++++++++++++++++++++++++++++++++++++%%%%%%%%%%",
"%%%%%%%%      @@@@@@@@++++++++++++++++++++++++++++++++++++++++++++++++++++++++++++++++++++++++++++++++++++++++++++++++%%%%%%%%%%",
"%%%%%%%%      @@@@@@@@++++++++++++++++++++++++++++++++++++++++++++++++++++++++++++++++++++++++++++++++++++++++++++++++%%%%%%%%%%",
"%%%%%%%%      @@@@@@@@++++++++++++++++++++++++++++++++++++++++++++++++++++++++++++++++++++++++++++++++++++++++++++++++%%%%%%%%%%",
"%%%%%%%%      @@@@@@@@++++++++++++++++++++++++++++++++++++++++++++++++++++++++++++++++++++++++++++++++++++++++++++++++%%%%%%%%%%",
"%%%%%%%       @@@@@@@@++++++++++++++++++++++++++++++++++++++++++++++++++++++++++++++++++++++++++++++++++++++++++++++++%%%%%%%%%%",
"%%%%%%%       @@@@@@@@++++++++++++++++++++++++++++++++++++++++++++++++++++++++++++++++++++++++++++++++++++++++++++++++%%%%%%%%%%",
"%%%%%%  @@@@@@@@@@@@@@++++++++++++++++++++++++++++++++++++++++++++++++++++++++++++++++++++++++++++++++++++++++++++++++%%%%%%%%%%",
"%%%%%% @@@@@@@@@@@@@@@++++++++++++++++++++++++++++++++++++++++++++++++++++++++++++++++++++++++++++++++++++++++++++++++%%%%%%%%%%",
"%%%%% @@@@@@@@@@@@@@@@++++++++++++++++++++++++++++++++++++++++++++++++++++++++++++++++++++++++++++++++++++++++++++++++%%%%%%%%%%",
"%%%   @@@@@@@@@@@@@@@@++++++++++++++++++++++++++++++++++++++++++++++++++++++++++++++++++++++++++++++++++++++++++++++++%%%%%%%%%%",
"%     @@@@@@@@@@@@@@@@++++++++++++++++++++++++++++++++++++++++++++++++++++++++++++++++++++++++++++++++++++++++++++++++%%%%%%%%%%",
"      @@@@@@@@@@@@@@@@++++++++++++++++++++++++++++++++++++++++++++++++++++++++++++++++++++++++++++++++++++++++++++++++%%%%%%%%%%",
"      @@@@@@@@@@@@@@@@@+++++++++++++++++++++++++++++++++++++++++++++++++++++++++++++++++++++++++++++++++++++++++++++++%%%%%%%%%%",
"      @@@@@@@@@@@@@@@@@+++++++++++++++++++++++++++++++++++++++++++++++++++++++++++++++++++++++++++++++++++++++++++++++%%%%%%%%%%",
"      @@@@@@@@@@@@@@@@@@@@@@@+++++++++++++++++++++++++++++++++++++++++++++++++++++++++++++++++++++++++++++++++@@@@@@@@ %%%%%%%%%",
"      @@@@@@@@@@@@@@@@@@@@@@@@++++++++++++++++++++++++++++++++++++++++++++++++++++++++++++++++++++++++++++++++@@@@@@@@   %%%%%%%",
"      @@@@@@@@@@@@@@@@@@@@@@@@++++++++++++++++++++++++++++++++++++++++++++++++++++++++++++++++++++++++++++++++@@@@@@@@     %%%%%",
"      @@@@@@@@@@@@@@@@@@@@@@@@++++++++++++++++++++++++++++++++++++++++++++++++++++++++++++++++++++++++++++++++@@@@@@@@       %%%",
"      @@@@@@@@@@@@@@@@@@@@@@@@++++++++++++++++++++++++++++++++++++++++++++++++++++++++++++++++++++++++++++++++@@@@@@@@         %",
"      @@@@@@@@@@@@@@@@@@@@@@@@++++++++++++++++++++++++++++++++++++++++++++++++++++++++++++++++++++++++++++++++@@@@@@@@          ",
"      @@@@@@@@@@@@@@@@@@@@@@@@++++++++++++++++++++++++++++++++++++++++++++++++++++++++++++++++++++++++++++++++@@@@@@@@          ",
"      @@@@@@@@@@@@@@@@@@@@@@@@@+++++++++++++++++++++++++++++++++++++++++++++++++++++++++++++++++++++++++++++++@@@@@@@@          ",
"      @@@@@@@@@@@@@@@@@@@@@@@@@@@@@@@@@@@@@@@++++++++++++++++++++++++++++++++++--------------+++++++++++++++++@@@@@@@@          ",
"      @@@@@@@@@@@@@@@@@@@@@@@@@@@@@@@@@@@@@@@@++++++++++++++++++++++++++++++++----------------++++++++++++++++@@@@@@@@          ",
"      @@@@@@@@@@@@@@@@@@@@@@@@@@@@@@@@@@@@@@@@++++++++++++++++++++++++++++++++----------------++++++++++++++++@@@@@@@@          ",
"      @@@@@@@@@@@@@@@@@@@@@@@@@@@@@@@@@@@@@@@@++++++++++++++++++++++++++++++++----------------++++++++++++++++@@@@@@@@          ",
"      @@@@@@@@@@@@@@@@@@@@@@@@@@@@@@@@@@@@@@@@++++++++++++++++++++++++++++++++----------------++++++++++++++++@@@@@@@@          ",
"      @@@@@@@@@@@@@@@@@@@@@@@@@@@@@@@@@@@@@@@@++++++++++++++++++++++++++++++++----------------++++++++++++++++@@@@@@@@          ",
"       @@@@@@@@@@@@@@@@@@@@@@@@@@@@@@@@@@@@@@@++++++++++++++++++++++++++++++++----------------+++++++++++++++@@@@@@@@oo         ",
"        @@@@@@@@@@@@@@@@@@@@@@@@@@@@@@@@@@@@@@@+++++++++++++++++++++++++++++++----------------++++++++++++++@@@@@@@@ooo         ",
"        oooooo@@@@@@@@@@@@@@@@@@@@@@@@@@@@@@@@@@@@@@@@-------+++++++++++++++++----------------++++++++@@@@@@@@oooooooooo        ",
"        oooooo@@@@@@@@@@@@@@@@@@@@@@@@@@@@@@@@@@@@@@@@--------++++++++++++++++----------------++++++++@@@@@@@@oooooooooo        ",
"        oooooo@@@@@@@@@@@@@@@@@@@@@@@@@@@@@@@@@@@@@@@@--------++++++++++++++++----------------++++++++@@@@@@@@ooooooooo         ",
"        oooooo@@@@@@@@@@@@@@@@@@@@@@@@@@@@@@@@@@@@@@@@--------++++++++++++++++----------------++++++++@@@@@@@@ooooooooo         ",
"        oooooo@@@@@@@@@@@@@@@@@@@@@@@@@@@@@@@@@@@@@@@@--------++++++++++++++++----------------++++++++@@@@@@@@ooooooo           ",
"        oooooo@@@@@@@@@@@@@@@@@@@@@@@@@@@@@@@@@@@@@@@@--------++++++++++++++++----------------++++++++@@@@@@@@XX                ",
"         oooooo@@@@@@@@@@@@@@@@@@@@@@@@@@@@@@@@@@@@@@@--------++++++++++++++++----------------++++++++@@@@@@@XX                 ",
"         ooooooo@@@@@@@@@@@@@@@@@@@@@@@@@@@@@@@@@@@@@@--------++++++++++++++++----------------++++++++@@@@@@XXX                 ",
"          oooooooooooooooooooooooooooooooooooooooooooooooooooooooooooooooooooooooooooooooooooooooXXXXXXXXXXXXX                  ",
"          oooooooooooooooooooooooooooooooooooooooooooooooooooooooooooooooooooooooooooooooooooooXXXXXXXXXXXXXXX                  ",
"           ooooooooooooooooooooooooooooooooooooooooooooooooooooooooooooooooooooooooooooooooooXXXXXXXXXXXXXXXX                   ",
"             ooooooooooooooooooooooooooooooooooooooooooooooooooooooooooooooooooooooooooooooXXXXXXXXXXXXXXXXXX                   ",
"               ooooooooooooooooooooooooooooooooooooooooooooooooooooooooooooooooooooooooooXXXXXXXXXXXXXXXXXXX                    ",
"                        XXXXXXXXXXXXXXXXXooooooooooooooooooooooooooooooXXXXXXXXXXXXXXXXXXXXXXXXXXXXXXXXXXXXX                   *",
"                         XXXXXXXXXXXXXXXXXXooooooooooooooooooooooooooXXXXXXXXXXXXXXXXXXXXXXXXXXXXXXXXXXXXXX                  ***",
"                         XXXXXXXXXXXXXXXXXXXXooooooooooooooooooooooXXXXXXXXXXXXXXXXXXXXXXXXXXXXXXXXXXXXXXXX                *****",
"                          XXXXXXXXXXXXXXXXXXXXXooooooooooooooooooXXXXXXXXXXXXXXXXXXXXXXXXXXXXXXXXXXXXXXXX                *******",
"                          XXXXXXXXXXXXXXXXXXXXXXXooooooooooooooXXXXXXXXXXXXXXXXXXXXXXXXXXXXXXXXXXXXXXXX                *********",
"                           XXXXXXXXXXXXXXXXXXXXXXXXooooooooooXXXXXXXXXXXXXXXXXXXXXXXXXXXXXXXXXXXXXXXX                ***********",
"                             XXXXXXXXXXXXXXXXXXXXXXXXooooooXXXXXXXXXXXXXXXXXXXXXXXXXXXXXXXXXXXXXXXX                  ***********",
"                               XXXXXXXXXXXXXXXXXXXXXXXXooXXXXXXXXXXXXXXXXXXXXXXXXXXXXXXXXXXXXXXXX                   ************",
"*                                XXXXXXXXXXXXXXXXXXXXXXXXXXXXXXXXXXXXXXXXXXXXXX                                     ************",
"***                                XXXXXXXXXXXXXXXXXXXXXXXXXXXXXXXXXXXXXXXXXX                                      *************",
"*****                                XXXXXXXXXXXXXXXXXXXXXXXXXXXXXXXXXXXXXX                                        *************",
"*******                                XXXXXXXXXXXXXXXXXXXXXXXXXXXXXXXXXX                                        ***************",
"*********                                XXXXXXXXXXXXXXXXXXXXXXXXXXXXXX                                        *****************",
"***********                                XXXXXXXXXXXXXXXXXXXXXXXXXX                                        *******************",
"*************                                XXXXXXXXXXXXXXXXXXXXXX                                        *********************",
"***************                                XXXXXXXXXXXXXXXXXX                                        ***********************",
"%************************                                                              ********************************%%%%%%%%%",
"%%%************************                                                          ********************************%%%%%%%%%%%",
"%%%%%************************                                                      ********************************%%%%%%%%%%%%%",
"%%%%%%%************************                                                  ********************************%%%%%%%%%%%%%%%",
"%%%%%%%%%************************                                              ********************************%%%%%%%%%%%%%%%%%",
"%%%%%%%%%%%************************                                          ********************************%%%%%%%%%%%%%%%%%%%",
"%%%%%%%%%%%%%************************                                      ********************************%%%%%%%%%%%%%%%%%%%%%",
"%%%%%%%%%%%%%%%************************                                  ********************************%%%%%%%%%%%%%%%%%%%%%%%",
"%%%%%%%%%%%%%%%%%%%%%%%%%**************************************************************%%%%%%%%%%%%%%%%%%%%%%%%%%%%%%%%%%%%%%%%%",
"%%%%%%%%%%%%%%%%%%%%%%%%%%%**********************************************************%%%%%%%%%%%%%%%%%%%%%%%%%%%%%%%%%%%%%%%%%%%",
"%%%%%%%%%%%%%%%%%%%%%%%%%%%%%******************************************************%%%%%%%%%%%%%%%%%%%%%%%%%%%%%%%%%%%%%%%%%%%%%",
"%%%%%%%%%%%%%%%%%%%%%%%%%%%%%%%**************************************************%%%%%%%%%%%%%%%%%%%%%%%%%%%%%%%%%%%%%%%%%%%%%%%",
"%%%%%%%%%%%%%%%%%%%%%%%%%%%%%%%%%**********************************************%%%%%%%%%%%%%%%%%%%%%%%%%%%%%%%%%%%%%%%%%%%%%%%%%",
"%%%%%%%%%%%%%%%%%%%%%%%%%%%%%%%%%%%******************************************%%%%%%%%%%%%%%%%%%%%%%%%%%%%%%%%%%%%%%%%%%%%%%%%%%%",
"%%%%%%%%%%%%%%%%%%%%%%%%%%%%%%%%%%%%%**************************************%%%%%%%%%%%%%%%%%%%%%%%%%%%%%%%%%%%%%%%%%%%%%%%%%%%%%",
"%%%%%%%%%%%%%%%%%%%%%%%%%%%%%%%%%%%%%%%**********************************%%%%%%%%%%%%%%%%%%%%%%%%%%%%%%%%%%%%%%%%%%%%%%%%%%%%%%%",
"%%%%%%%%%%%%%%%%%%%%%%%%%%%%%%%%%%%%%%%%%%%%%%%%%%%%%%%%%%%%%%%%%%%%%%%%%%%%%%%%%%%%%%%%%%%%%%%%%%%%%%%%%%%%%%%%%%%%%%%%%%%%%%%%",
"%%%%%%%%%%%%%%%%%%%%%%%%%%%%%%%%%%%%%%%%%%%%%%%%%%%%%%%%%%%%%%%%%%%%%%%%%%%%%%%%%%%%%%%%%%%%%%%%%%%%%%%%%%%%%%%%%%%%%%%%%%%%%%%%",
"%%%%%%%%%%%%%%%%%%%%%%%%%%%%%%%%%%%%%%%%%%%%%%%%%%%%%%%%%%%%%%%%%%%%%%%%%%%%%%%%%%%%%%%%%%%%%%%%%%%%%%%%%%%%%%%%%%%%%%%%%%%%%%%%",
"%%%%%%%%%%%%%%%%%%%%%%%%%%%%%%%%%%%%%%%%%%%%%%%%%%%%%%%%%%%%%%%%%%%%%%%%%%%%%%%%%%%%%%%%%%%%%%%%%%%%%%%%%%%%%%%%%%%%%%%%%%%%%%%%",
"%%%%%%%%%%%%%%%%%%%%%%%%%%%%%%%%%%%%%%%%%%%%%%%%%%%%%%%%%%%%%%%%%%%%%%%%%%%%%%%%%%%%%%%%%%%%%%%%%%%%%%%%%%%%%%%%%%%%%%%%%%%%%%%%",
"%%%%%%%%%%%%%%%%%%%%%%%%%%%%%%%%%%%%%%%%%%%%%%%%%%%%%%%%%%%%%%%%%%%%%%%%%%%%%%%%%%%%%%%%%%%%%%%%%%%%%%%%%%%%%%%%%%%%%%%%%%%%%%%%",
"%%%%%%%%%%%%%%%%%%%%%%%%%%%%%%%%%%%%%%%%%%%%%%%%%%%%%%%%%%%%%%%%%%%%%%%%%%%%%%%%%%%%%%%%%%%%%%%%%%%%%%%%%%%%%%%%%%%%%%%%%%%%%%%%",
"%%%%%%%%%%%%%%%%%%%%%%%%%%%%%%%%%%%%%%%%%%%%%%%%%%%%%%%%%%%%%%%%%%%%%%%%%%%%%%%%%%%%%%%%%%%%%%%%%%%%%%%%%%%%%%%%%%%%%%%%%%%%%%%%"
};
