/* XPM */
static char *_f359bd3043e4e7dfef42062c68b2e24nGs22EPzave0wee1[] = {
/* columns rows colors chars-per-pixel */
"128 128 14 1 ",
"  c black",
". c #323C39",
"X c #595652",
"o c #476A5F",
"O c #54AD6E",
"+ c #5AB56F",
"@ c #52A273",
"# c #5EB773",
"$ c #71B46A",
"% c #155BBD",
"& c #7AC08C",
"* c #639BFF",
"= c #BEA598",
"- c #96D0A4",
/* pixels */
"%%%%%%%%%%%%%%%%%%%%%%%%%%%%%%%%%%%%%%%%%%%%%%%%%%%%%%%%%%%%%%%%%%%%%%%%%%%%%%%%%%%%%%%%%%%%%%%%%%%%%%%%%%%%%%%%%%%%%%%%%%%%%%%%",
"%%%%%%%%%%%%%%%%%%%%%%%%%%%%%%%%%%%%%%%%%%%%%%%%%%%%%%%%%%%%%%%%%%%%%%%%%%%%%%%%%%%%%%%%%%%%%%%%%%%%%%%%%%%%%%%%%%%%%%%%%%%%%%%%",
"%%%%%%%%%%%%%%%%%%%%%%%%%%%%%%%%%%%%%%%%%%%%%%%%%%%%%%%%%%%%%%%%%%%%%%%%%%%%%%%%%%%%%%%%%%%%%%%%%%%%%%%%%%%%%%%%%%%%%%%%%%%%%%%%",
"%%%%%%%%%%%%%%%%%%%%%%%%%%%%%%%%%%%%%%%%%%%%%%%%&&&&&&&&&&&&&&++++++%%%%%%%%%%%%&&&&&&++++++%%%%%%%%%%%%%%%%%%%%%%%%%%%%%%%%%%%%",
"%%%%%%%%%%%%%%%%%%%%%%%%%%%%%%%%%%%%%%%%%%%%%%%&&&&&&&&&&&&&&&+++++++%%%%%%%%%&&&&&&&&+++++++%%%%%%%%%%%%%%%%%%%%%%%%%%%%%%%%%%%",
"%%%%%%%%%%%%%%%%%%%%%%%%%%%%%%%%%%%%%%%%%%%%%%&&&&&&&&&&&&&&&&++++++++%%%%%%%%&&&&&&&&++++++++%%%%%%%%%%%%%%%%%%%%%%%%%%%%%%%%%%",
"%%%%%%%%%%%%%%%%%%%%%%%%%%%%%%%%%%%%%%%%%%%%%%&&&&&&&&&&&&&&&&++++++++%%%%%%%%&&&&&&&&++++++++%%%%%%%%%%%%%%%%%%%%%%%%%%%%%%%%%%",
"%%%%%%%%%%%%%%%%%%%%%%%%%%%%%%%%%%%%%%%%%%%%%%&&&&&&&&&&&&&&&&++++++++%%%%%%%%&&&&&&&&++++++++%%%%%%%%%%%%%%%%%%%%%%%%%%%%%%%%%%",
"%%%%%%%%%%%%%%%%%%%%%%%%%%%%%%%%%%%%%%%%%%%%%%&&&&&&&&&&&&&&&&++++++++XXXXXXXX&&&&&&&&++++++++%%%%%%%%%%%%%%%%%%%%%%%%%%%%%%%%%%",
"%%%%%%%%%%%%%%%%%%%%%%%%%%%%%%%%%%%%%%%%%%%%%X&&&&&&&&&&&&&&&&++++++++XXXXXXXX&&&&&&&&++++++++%%%%%%%%%%%%%%%%%%%%%%%%%%%%%%%%%%",
"%%%%%%%%%%%%%%%%%%%%%%%%%%%%%%%%%%%%%%%%%%%XXX&&&&&&&&&&&&&&&&++++++++XXXXXXXX&&&&&&&&++++++++%%%%%%%%%%%%%%%%%%%%%%%%%%%%%%%%%%",
"%%%%%%%%%%%%%%%%%%%%%%%%%%%%%%%%%%%%%%%%&&&&&&&&######oooooooo++++++++@@@@@@@@########oooooo++++++++%%%%%%%%%%%%%%%%%%%%%%%%%%%%",
"%%%%%%%%%%%%%%%%%%%%%%%%%%%%%%%%%%%%%%%&&&&&&&&#######oooooooo++++++++@@@@@@@@########ooooooo++++++++%%%%%%%%%%%%%%%%%%%%%%%%%%%",
"%%%%%%%%%%%%%%%%%%%%%%%%%%%%%%%%%%%%%X&&&&&&&&########oooooooo++++++++@@@@@@@@########oooooooo++++++++%%%%%%%%%%%%%%%%%%%%%%%%%%",
"%%%%%%%%%%%%%%%%%%%%%%%%%%%%%%%%%%%XXX&&&&&&&&########oooooooo++++++++@@@@@@@@########oooooooo++++++++%%%%%%%%%%%%%%%%%%%%%%%%%%",
"%%%%%%%%%%%%%%%%%%%%%%%%%%%%%%%%%XXXXX&&&&&&&&########oooooooo++++++++@@@@@@@@########oooooooo++++++++%%%%%%%%%%%%%%%%%%%%%%%%%%",
"%%%%%%%%%%%%%%%%%%%%%%%%%%%%%%%XXXXXXX&&&&&&&&########oooooooo++++++++@@@@@@@@########oooooooo++++++++%%%%%%%%%%%%%%%%%%%%%%%%%%",
"%%%%%%%%%%%%%%%%%%%%%%%%%%%%%XXXXXXXXX&&&&&&&&########oooooooo++++++++@@@@@@@@########oooooooo++++++++%%%%%%%%%%%%%%%%%%%%%%%%%%",
"%%%%%%%%%%%%%%%%%%%%%%%%%%%XXXXXXXXXXX&&&&&&&&########oooooooo++++++++@@@@@@@@########oooooooo++++++++%%%%%%%%%%%%%%%%%%%%%%%%%%",
"%%%%%%%%%%%%%%%%%%%%%%%%%XXXXXXX&&&&&&&&########======OOOOOOOO++++++++++++++++++++++++OOOOOOOO======++++++++%%%%%%%%%%%%%%%%%%%%",
"%%%%%%%%%%%%%%%%%%%%%%%XXXXXXXX&&&&&&&&########=======OOOOOOOO++++++++++++++++++++++++OOOOOOOO=======++++++++%%%%%%%%%%%%%%%%%%%",
"%%%%%%%%%%%%%%%%%%%%%XXXXXXXXX&&&&&&&&########========OOOOOOOO++++++++++++++++++++++++OOOOOOOO========++++++++%%%%%%%%%%%%%%%%%%",
"%%%%%%%%%%%%%%%%%%%%%XXXXXXXXX&&&&&&&&########========OOOOOOOO++++++++++++++++++++++++OOOOOOOO========++++++++%%%%%%%%%%%%%%%%%%",
"%%%%%%%%%%%%%%%%%%%%XXXXXXXXXX&&&&&&&&########========OOOOOOOO++++++++++++++++++++++++OOOOOOOO========++++++++%%%%%%%%%%%%%%%%%%",
"%%%%%%%%%%%%%%%%%%%%XXXXXXXXXX&&&&&&&&########========OOOOOOOO++++++++++++++++++++++++OOOOOOOO========++++++++%%%%%%%%%%%%%%%%%%",
"%%%%%%%%%%%%%%%%%%%XXXXXXXXXXX&&&&&&&&########========OOOOOOOO++++++++++++++++++++++++OOOOOOOO========++++++++%%%%%%%%%%%%%%%%%%",
"%%%%%%%%%%%%%%%%%%%XXXXXXXXXXX&&&&&&&#########========OOOOOOO++++++++++++++++++++++++++OOOOOOO========++++++++%%%%%%%%%%%%%%%%%%",
"%%%%%%%%%%%%%%%%%XXXXXXX@@@@@@#########+++++++$$$$$$$$+++++++++++++++++oooooooooooooo+++++++++$$$$$$$$++++++++X%%%%%%%%%%%%%%%%%",
"%%%%%%%%%%%%%%%XXXXXXXX@@@@@@@########++++++++$$$$$$$$++++++++++++++++oooooooooooooooo++++++++$$$$$$$$++++++++XXX%%%%%%%%%%%%%%%",
"%%%%%%%%%%%%%XXXXXXXXX@@@@@@@@########++++++++$$$$$$$$++++++++++++++++oooooooooooooooo++++++++$$$$$$$$++++++++XXXXX%%%%%%%%%%%%%",
"%%%%%%%%%%%%%XXXXXXXXX@@@@@@@@########++++++++$$$$$$$$++++++++++++++++oooooooooooooooo++++++++$$$$$$$$++++++++XXXXX%%%%%%%%%%%%%",
"%%%%%%%%%%%%XXXXXXXXXX@@@@@@@@########++++++++$$$$$$$$++++++++++++++++oooooooooooooooo++++++++$$$$$$$$++++++++XXXXXX%%%%%%%%%%%%",
"%%%%%%%%%%%%XXXXXXXXXX@@@@@@@@########++++++++$$$$$$$$++++++++++++++++oooooooooooooooo++++++++$$$$$$$$++++++++XXXXXX%%%%%%%%%%%%",
"%%%%%%%%%%%XXXXXXXXXXX@@@@@@@@########++++++++$$$$$$$$++++++++++++++++oooooooooooooooo++++++++$$$$$$$+++++++++XXXXXXX%%%%%%%%%%%",
"%%%%%%%%%%%XXXXXXXXXXX@@@@@@@@#######++++++++++$$$$$$+++++++++++++++++oooooooooooooooo+++++++++$$$$$$+++++++++XXXXXXX%%%%%%%%%%%",
"%%%%%%%%%XXXXXXX@@@@@@@@@@@@@@++++++++++++++++++++++++++++++++++++++++OOOOOOOOOOOOOOOO++++++++++++++++++++++++++++++XXX%%%%%%%%%",
"%%%%%%%XXXXXXXX@@@@@@@@@@@@@@@++++++++++++++++++++++++++++++++++++++++OOOOOOOOOOOOOOOO+++++++++++++++++++++++++++++++XXXX%%%%%%%",
"%%%%%XXXXXXXXX@@@@@@@@@@@@@@@@++++++++++++++++++++++++++++++++++++++++OOOOOOOOOOOOOOOO++++++++++++++++++++++++++++++++XXXXX%%%%%",
"%%%XXXXXXXXXXX@@@@@@@@@@@@@@@@++++++++++++++++++++++++++++++++++++++++OOOOOOOOOOOOOOOO++++++++++++++++++++++++++++++++XXXXXXX%%%",
"%XXXXXXXXXXXXX@@@@@@@@@@@@@@@@++++++++++++++++++++++++++++++++++++++++OOOOOOOOOOOOOOOO++++++++++++++++++++++++++++++++XXXXXXXXX%",
"XXXXXXXXXXXXXX@@@@@@@@@@@@@@@@++++++++++++++++++++++++++++++++++++++++OOOOOOOOOOOOOOOO++++++++++++++++++++++++++++++++XXXXXXXXXX",
"XXXXXXXXXXXXXX@@@@@@@@@@@@@@@@++++++++++++++++++++++++++++++++++++++++OOOOOOOOOOOOOOOO++++++++++++++++++++++++++++++++XXXXXXXXXX",
"XXXXXXXXXXXXXX@@@@@@@@@@@@@@@++++++++++++++++++++++++++++++++++++++++++OOOOOOOOOOOOOO+++++++++++++++++++++++++++++++++XXXXXXXXXX",
"XXXXXXXXXXXXXX@@@@@@@@@@++++++++++++++++++++++++++++++++++++++++++++++++++++++++++++++++++++++++++++++++++++++++++++++XXXXXXXXXX",
"XXXXXXXXXXXXXX@@@@@@@@@+++++++++++++++++++++++++++++++++++++++++++++++++++++++++++++++++++++++++++++++++++++++++++++++XXXXXXXXXX",
"XXXXXXXXXXXXXX@@@@@@@@++++++++++++++++++++++++++++++++++++++++++++++++++++++++++++++++++++++++++++++++++++++++++++++++XXXXXXXXXX",
"XXXXXXXXXXXXXX@@@@@@@@++++++++++++++++++++++++++++++++++++++++++++++++++++++++++++++++++++++++++++++++++++++++++++++++XXXXXXXXXX",
"XXXXXXXXXXXXXX@@@@@@@@++++++++++++++++++++++++++++++++++++++++++++++++++++++++++++++++++++++++++++++++++++++++++++++++XXXXXXXXXX",
"XXXXXXXXXXXXXX@@@@@@@@++++++++++++++++++++++++++++++++++++++++++++++++++++++++++++++++++++++++++++++++++++++++++++++++XXXXXXXXXX",
"XXXXXXXXXXXXXX@@@@@@@@++++++++++++++++++++++++++++++++++++++++++++++++++++++++++++++++++++++++++++++++++++++++++++++++XXXXXXXXXX",
"XXXXXXXXXXXXXX@@@@@@@@++++++++++++++++++++++++++++++++++++++++++++++++++++++++++++++++++++++++++++++++++++++++++++++++XXXXXXXXXX",
"XXXXXXXX@@@@@@@@@@@@@@++++++++++++++++++++++++++++++++++++++++++++++++++++++++++++++++++++++++++++++++++++++++++++++++XXXXXXXXXX",
"XXXXXXX@@@@@@@@@@@@@@@++++++++++++++++++++++++++++++++++++++++++++++++++++++++++++++++++++++++++++++++++++++++++++++++XXXXXXXXXX",
"XXXXXX@@@@@@@@@@@@@@@@++++++++++++++++++++++++++++++++++++++++++++++++++++++++++++++++++++++++++++++++++++++++++++++++XXXXXXXXXX",
"XXXXXX@@@@@@@@@@@@@@@@++++++++++++++++++++++++++++++++++++++++++++++++++++++++++++++++++++++++++++++++++++++++++++++++XXXXXXXXXX",
"XXXXXX@@@@@@@@@@@@@@@@++++++++++++++++++++++++++++++++++++++++++++++++++++++++++++++++++++++++++++++++++++++++++++++++XXXXXXXXXX",
"XXXXXX@@@@@@@@@@@@@@@@++++++++++++++++++++++++++++++++++++++++++++++++++++++++++++++++++++++++++++++++++++++++++++++++XXXXXXXXXX",
"XXXXXX@@@@@@@@@@@@@@@@@+++++++++++++++++++++++++++++++++++++++++++++++++++++++++++++++++++++++++++++++++++++++++++++++XXXXXXXXXX",
"XXXXXX@@@@@@@@@@@@@@@@@+++++++++++++++++++++++++++++++++++++++++++++++++++++++++++++++++++++++++++++++++++++++++++++++XXXXXXXXXX",
"XXXXXX@@@@@@@@@@@@@@@@@@@@@@@+++++++++++++++++++++++++++++++++++++++++++++++++++++++++++++++++++++++++++++++++@@@@@@@@XXXXXXXXXX",
"XXXXXX@@@@@@@@@@@@@@@@@@@@@@@@++++++++++++++++++++++++++++++++++++++++++++++++++++++++++++++++++++++++++++++++@@@@@@@@XXXXXXXXXX",
"XXXXXX@@@@@@@@@@@@@@@@@@@@@@@@++++++++++++++++++++++++++++++++++++++++++++++++++++++++++++++++++++++++++++++++@@@@@@@@XXXXXXXXXX",
"XXXXXX@@@@@@@@@@@@@@@@@@@@@@@@++++++++++++++++++++++++++++++++++++++++++++++++++++++++++++++++++++++++++++++++@@@@@@@@XXXXXXXXXX",
"XXXXXX@@@@@@@@@@@@@@@@@@@@@@@@++++++++++++++++++++++++++++++++++++++++++++++++++++++++++++++++++++++++++++++++@@@@@@@@XXXXXXXXXX",
"XXXXXX@@@@@@@@@@@@@@@@@@@@@@@@++++++++++++++++++++++++++++++++++++++++++++++++++++++++++++++++++++++++++++++++@@@@@@@@XXXXXXXXXX",
"XXXXXX@@@@@@@@@@@@@@@@@@@@@@@@++++++++++++++++++++++++++++++++++++++++++++++++++++++++++++++++++++++++++++++++@@@@@@@@XXXXXXXXXX",
"XXXXXX@@@@@@@@@@@@@@@@@@@@@@@@@+++++++++++++++++++++++++++++++++++++++++++++++++++++++++++++++++++++++++++++++@@@@@@@@XXXXXXXXXX",
"XXXXXX@@@@@@@@@@@@@@@@@@@@@@@@@@@@@@@@@@@@@@@++++++++++++++++++++++++++++++++++--------------+++++++++++++++++@@@@@@@@XXXXXXXXXX",
"XXXXXX@@@@@@@@@@@@@@@@@@@@@@@@@@@@@@@@@@@@@@@@++++++++++++++++++++++++++++++++----------------++++++++++++++++@@@@@@@@XXXXXXXXXX",
"XXXXXX@@@@@@@@@@@@@@@@@@@@@@@@@@@@@@@@@@@@@@@@++++++++++++++++++++++++++++++++----------------++++++++++++++++@@@@@@@@XXXXXXXXXX",
"XXXXXX@@@@@@@@@@@@@@@@@@@@@@@@@@@@@@@@@@@@@@@@++++++++++++++++++++++++++++++++----------------++++++++++++++++@@@@@@@@XXXXXXXXXX",
"XXXXXX@@@@@@@@@@@@@@@@@@@@@@@@@@@@@@@@@@@@@@@@++++++++++++++++++++++++++++++++----------------++++++++++++++++@@@@@@@@XXXXXXXXXX",
"XXXXXX@@@@@@@@@@@@@@@@@@@@@@@@@@@@@@@@@@@@@@@@++++++++++++++++++++++++++++++++----------------++++++++++++++++@@@@@@@@XXXXXXXXXX",
"XXXXXXX@@@@@@@@@@@@@@@@@@@@@@@@@@@@@@@@@@@@@@@++++++++++++++++++++++++++++++++----------------+++++++++++++++@@@@@@@@XXXXXXXXXXX",
"XXXXXXXX@@@@@@@@@@@@@@@@@@@@@@@@@@@@@@@@@@@@@@@+++++++++++++++++++++++++++++++----------------++++++++++++++@@@@@@@@XXXXXXXXXXXX",
"XXXXXXXXXXXXXX@@@@@@@@@@@@@@@@@@@@@@@@@@@@@@@@@@@@@@@@-------+++++++++++++++++----------------++++++++@@@@@@@@XXXXXXXXXXXXXXXXXX",
"XXXXXXXXXXXXXX@@@@@@@@@@@@@@@@@@@@@@@@@@@@@@@@@@@@@@@@--------++++++++++++++++----------------++++++++@@@@@@@@XXXXXXXXXXXXXXXXXX",
"XXXXXXXXXXXXXX@@@@@@@@@@@@@@@@@@@@@@@@@@@@@@@@@@@@@@@@--------++++++++++++++++----------------++++++++@@@@@@@@XXXXXXXXXXXXXXXXXX",
"XXXXXXXXXXXXXX@@@@@@@@@@@@@@@@@@@@@@@@@@@@@@@@@@@@@@@@--------++++++++++++++++----------------++++++++@@@@@@@@XXXXXXXXXXXXXXXXXX",
"XXXXXXXXXXXXXX@@@@@@@@@@@@@@@@@@@@@@@@@@@@@@@@@@@@@@@@--------++++++++++++++++----------------++++++++@@@@@@@@XXXXXXXXXXXXXXXXXX",
"XXXXXXXXXXXXXX@@@@@@@@@@@@@@@@@@@@@@@@@@@@@@@@@@@@@@@@--------++++++++++++++++----------------++++++++@@@@@@@@XXXXXXXXXXXXXXXXXX",
"XXXXXXXXXXXXXXX@@@@@@@@@@@@@@@@@@@@@@@@@@@@@@@@@@@@@@@--------++++++++++++++++----------------++++++++@@@@@@@XXXXXXXXXXXXXXXXXXX",
"XXXXXXXXXXXXXXXX@@@@@@@@@@@@@@@@@@@@@@@@@@@@@@@@@@@@@@--------++++++++++++++++----------------++++++++@@@@@@XXXXXXXXXXXXXXXXXXXX",
"XXXXXXXXXXXXXXXXXXXXXXX                 ........                                ........                 XXXXXXXXXXXXXXXXXXXXXXX",
"XXXXXXXXXXXXXXXXXXXXXXXXX               ........                                ........               XXXXXXXXXXXXXXXXXXXXXXXXX",
"XXXXXXXXXXXXXXXXXXXXXXXXXXX             ........                                ........             XXXXXXXXXXXXXXXXXXXXXXXXXXX",
"XXXXXXXXXXXXXXXXXXXXXXXXXXX             ........                                ........             XXXXXXXXXXXXXXXXXXXXXXXXXXX",
"XXXXXXXXXXXXXXXXXXXXXXXXXXXX            ........                                ........            XXXXXXXXXXXXXXXXXXXXXXXXXXXX",
"*XXXXXXXXXXXXXXXXXXXXXXXXXXX            ........                                ........            XXXXXXXXXXXXXXXXXXXXXXXXXXX*",
"***XXXXXXXXXXXXXXXXXXXXXXXXXX           ........                                ........           XXXXXXXXXXXXXXXXXXXXXXXXXX***",
"*****XXXXXXXXXXXXXXXXXXXXXXXX           ........                                ........           XXXXXXXXXXXXXXXXXXXXXXXX*****",
"*******XXXXXXXXXXXXXXXXXXXXXXXX         ........                                ........         XXXXXXXXXXXXXXXXXXXXXXXX*******",
"*********XXXXXXXXXXXXXXXXXXXXXXXX       ........                                ........       XXXXXXXXXXXXXXXXXXXXXXXX*********",
"***********XXXXXXXXXXXXXXXXXXXXXXXX     ........                                ........     XXXXXXXXXXXXXXXXXXXXXXXX***********",
"***********XXXXXXXXXXXXXXXXXXXXXXXXXX   ........                                ........   XXXXXXXXXXXXXXXXXXXXXXXXXX***********",
"************XXXXXXXXXXXXXXXXXXXXXXXXXXX ........                                ........ XXXXXXXXXXXXXXXXXXXXXXXXXXX************",
"************XXXXXXXXXXXXXXXXXXXXXXXXXXXX........                                ........XXXXXXXXXXXXXXXXXXXXXXXXXXXX************",
"*************XXXXXXXXXXXXXXXXXXXXXXXXXXXX.......                                .......XXXXXXXXXXXXXXXXXXXXXXXXXXXX*************",
"*************XXXXXXXXXXXXXXXXXXXXXXXXXXXX.......                                .......XXXXXXXXXXXXXXXXXXXXXXXXXXXX*************",
"***************XXXXXXXXXXXXXXXXXXXXXXXXXXX......                                ......XXXXXXXXXXXXXXXXXXXXXXXXXXX***************",
"*****************XXXXXXXXXXXXXXXXXXXXXXXXX......                                ......XXXXXXXXXXXXXXXXXXXXXXXXX*****************",
"*******************XXXXXXXXXXXXXXXXXXXXXXXX.....                                .....XXXXXXXXXXXXXXXXXXXXXXXX*******************",
"*******************XXXXXXXXXXXXXXXXXXXXXXXXXX...                                ...XXXXXXXXXXXXXXXXXXXXXXXXXX*******************",
"********************XXXXXXXXXXXXXXXXXXXXXXXXXXX.                                .XXXXXXXXXXXXXXXXXXXXXXXXXXX********************",
"%*******************XXXXXXXXXXXXXXXXXXXXXXXXXXXXXXXXXXXXXXXXXXXXXXXXXXXXXXXXXXXXXXXXXXXXXXXXXXXXXXXXXXXXXXXX*******************%",
"%%%******************XXXXXXXXXXXXXXXXXXXXXXXXXXXXXXXXXXXXXXXXXXXXXXXXXXXXXXXXXXXXXXXXXXXXXXXXXXXXXXXXXXXXXX******************%%%",
"%%%%%****************XXXXXXXXXXXXXXXXXXXXXXXXXXXXXXXXXXXXXXXXXXXXXXXXXXXXXXXXXXXXXXXXXXXXXXXXXXXXXXXXXXXXXX****************%%%%%",
"%%%%%%%****************XXXXXXXXXXXXXXXXXXXXXXXXXXXXXXXXXXXXXXXXXXXXXXXXXXXXXXXXXXXXXXXXXXXXXXXXXXXXXXXXXX****************%%%%%%%",
"%%%%%%%%%****************XXXXXXXXXXXXXXXXXXXXXXXXXXXXXXXXXXXXXXXXXXXXXXXXXXXXXXXXXXXXXXXXXXXXXXXXXXXXXX****************%%%%%%%%%",
"%%%%%%%%%%%****************XXXXXXXXXXXXXXXXXXXXXXXXXXXXXXXXXXXXXXXXXXXXXXXXXXXXXXXXXXXXXXXXXXXXXXXXXX****************%%%%%%%%%%%",
"%%%%%%%%%%%******************XXXXXXXXXXXXXXXXXXXXXXXXXXXXXXXXXXXXXXXXXXXXXXXXXXXXXXXXXXXXXXXXXXXXXX******************%%%%%%%%%%%",
"%%%%%%%%%%%%*******************XXXXXXXXXXXXXXXXXXXXXXXXXXXXXXXXXXXXXXXXXXXXXXXXXXXXXXXXXXXXXXXXXX*******************%%%%%%%%%%%%",
"%%%%%%%%%%%%*********************XXXXXXXXXXXXXXXXXXXXXXXXXXXXXXXXXXXXXXXXXXXXXXXXXXXXXXXXXXXXXX*********************%%%%%%%%%%%%",
"%%%%%%%%%%%%%**********************XXXXXXXXXXXXXXXXXXXXXXXXXXXXXXXXXXXXXXXXXXXXXXXXXXXXXXXXXX**********************%%%%%%%%%%%%%",
"%%%%%%%%%%%%%************************XXXXXXXXXXXXXXXXXXXXXXXXXXXXXXXXXXXXXXXXXXXXXXXXXXXXXX************************%%%%%%%%%%%%%",
"%%%%%%%%%%%%%%%************************XXXXXXXXXXXXXXXXXXXXXXXXXXXXXXXXXXXXXXXXXXXXXXXXXX************************%%%%%%%%%%%%%%%",
"%%%%%%%%%%%%%%%%%************************XXXXXXXXXXXXXXXXXXXXXXXXXXXXXXXXXXXXXXXXXXXXXX************************%%%%%%%%%%%%%%%%%",
"%%%%%%%%%%%%%%%%%%%************************XXXXXXXXXXXXXXXXXXXXXXXXXXXXXXXXXXXXXXXXXX************************%%%%%%%%%%%%%%%%%%%",
"%%%%%%%%%%%%%%%%%%%%%************************XXXXXXXXXXXXXXXXXXXXXXXXXXXXXXXXXXXXXX************************%%%%%%%%%%%%%%%%%%%%%",
"%%%%%%%%%%%%%%%%%%%%%%%************************XXXXXXXXXXXXXXXXXXXXXXXXXXXXXXXXXX************************%%%%%%%%%%%%%%%%%%%%%%%",
"%%%%%%%%%%%%%%%%%%%%%%%%%******************************************************************************%%%%%%%%%%%%%%%%%%%%%%%%%",
"%%%%%%%%%%%%%%%%%%%%%%%%%%%**************************************************************************%%%%%%%%%%%%%%%%%%%%%%%%%%%",
"%%%%%%%%%%%%%%%%%%%%%%%%%%%%%**********************************************************************%%%%%%%%%%%%%%%%%%%%%%%%%%%%%",
"%%%%%%%%%%%%%%%%%%%%%%%%%%%%%%********************************************************************%%%%%%%%%%%%%%%%%%%%%%%%%%%%%%",
"%%%%%%%%%%%%%%%%%%%%%%%%%%%%%%********************************************************************%%%%%%%%%%%%%%%%%%%%%%%%%%%%%%",
"%%%%%%%%%%%%%%%%%%%%%%%%%%%%%%%******************************************************************%%%%%%%%%%%%%%%%%%%%%%%%%%%%%%%",
"%%%%%%%%%%%%%%%%%%%%%%%%%%%%%%%******************************************************************%%%%%%%%%%%%%%%%%%%%%%%%%%%%%%%",
"%%%%%%%%%%%%%%%%%%%%%%%%%%%%%%%%****************************************************************%%%%%%%%%%%%%%%%%%%%%%%%%%%%%%%%"
};
