/* XPM */
static char *_95768daa3794008e5ecfc1408cdc693QtfKRfBZ8CRMYft1[] = {
/* columns rows colors chars-per-pixel */
"128 128 7 1 ",
"  c #595652",
". c #696A6A",
"X c #727170",
"o c #155BBD",
"O c #847E87",
"+ c #639BFF",
"@ c #9BADB7",
/* pixels */
"oooooooooooooooooooooooooooooooooooooooooooooooooooooooooooooooooooooooooooooooooooooooooooooooooooooooooooooooooooooooooooooooo",
"oooooooooooooooooooooooooooooooooooooooooooooooooooooooooooooooooooooooooooooooooooooooooooooooooooooooooooooooooooooooooooooooo",
"oooooooooooooooooooooooooooooooooooooooooooooooooooooooooooooooooooooooooooooooooooooooooooooooooooooooooooooooooooooooooooooooo",
"oooooooooooooooooooooooooooooooooooooooooooooooooooooooooooooooooooooooooooooooooooooooooooooooooooooooooooooooooooooooooooooooo",
"oooooooooooooooooooooooooooooooooooooooooooooooooooooooooooooooooooooooooooooooooooooooooooooooooooooooooooooooooooooooooooooooo",
"oooooooooooooooooooooooooooooooooooooooooooooooooooooooooooooooooooooooooooooooooooooooooooooooooooooooooooooooooooooooooooooooo",
"oooooooooooooooooooooooooooooooooooooooooooooooooooooooooooooooooooooooooooooooooooooooooooooooooooooooooooooooooooooooooooooooo",
"oooooooooooooooooooooooooooooooooooooooooooooooooooooooooooooooooooooooooooooooooooooooooooooooooooooooooooooooooooooooooooooooo",
"oooooooooooooooooooooooooooooooooooooooooooooooooooooooooooooooooooooooooooooooooooooooooooooooooooooooooooooooooooooooooooooooo",
"oooooooooooooooooooooooooooooooooooooooooooooooooooooooooooooooooooooooooooooooooooooooooooooooooooooooooooooooooooooooooooooooo",
"oooooooooooooooooooooooooooooooooooooooooooooooooooooooooooooooooooooooooooooooooooooooooooooooooooooooooooooooooooooooooooooooo",
"oooooooooooooooooooooooooooooooooooooooooooooooooooooooooooooooooooooooooooooooooooooooooooooooooooooooooooooooooooooooooooooooo",
"oooooooooooooooooooooooooooooooooooooooooooooooooooooooooooooooooooooooooooooooooooooooooooooooooooooooooooooooooooooooooooooooo",
"oooooooooooooooooooooooooooooooooooooooooooooooooooooooooooooooooooooooooooooooooooooooooooooooooooooooooooooooooooooooooooooooo",
"oooooooooooooooooooooooooooooooooooooooooooooooooooooooooooooooooooooooooooooooooooooooooooooooooooooooooooooooooooooooooooooooo",
"oooooooooooooooooooooooooooooooooooooooooooooooooooooooooooooooooooooooooooooooooooooooooooooooooooooooooooooooooooooooooooooooo",
"ooooooooooooooooooooooo                          ooooooooooooooooooooooooooooooooooooooooooooooooooooooooooooooooooooooooooooooo",
"ooooooooooooooooooooo                              ooooooooooooooooooooooooooooooooooooooooooooooooooooooooooooooooooooooooooooo",
"ooooooooooooooooooo                                  ooooooooooooooooooooooooooooooooooooooooooooooooooooooooooooooooooooooooooo",
"oooooooooooooooooo                                     ooooooooooooooooooooooooooooooooooooooooooooooooooooooooooooooooooooooooo",
"oooooooooooooooooo                                       ooooooooooooooooooooooooooooooooooooooooooooooooooooooooooooooooooooooo",
"ooooooooooooooooo                                          ooooooooooooooooooooooooooooooooooooooooooooooooooooooooooooooooooooo",
"ooooooooooooooooo                                            ooooooooooooooooooooooooooooooooooooooooooooooooooooooooooooooooooo",
"oooooooooooooooo                                               ooooooooooooooooooooooooooooooooooooooooooooooooooooooooooooooooo",
"oooooooooooooooo                       XX                        ooooooooooooooooooooooooooooooooooooooooooooooooooooooooooooooo",
"ooooooooooooooo                      XXXXXX                        ooooooooooooooooooooooooooooooooooooooooooooooooooooooooooooo",
"ooooooooooooooo                    XXXXXXXXXX                        ooooooooooooooooooooooooooooooooooooooooooooooooooooooooooo",
"oooooooooooooo                   XXXXXXXXXXXXXX                        ooooooooooooooooooooooooooooooooooooooooooooooooooooooooo",
"oooooooooooooo                 XXXXXXXXXXXXXXXXXX                        ooooooooooooooooooooooooooooooooooooooooooooooooooooooo",
"ooooooooooooo                XXXXXXXXXXXXXXXXXXXXXX                        ooooooooooooooooooooooooooooooooooooooooooooooooooooo",
"ooooooooooooo                XXXXXXXXXXXXXXXXXXXXXXXX                        ooooooooooooooooooooooooooooooooooooooooooooooooooo",
"oooooooooooo                XXXXXXXXXXXXXXXXXXXXXXXXXXX                        ooooooooooooooooooooooooooooooooooooooooooooooooo",
"oooooooooooo                XXXXXXXXXXXXXXXXXXXXXXXXXXXXX                        ooooooooooooooooooooooooooooooooooooooooooooooo",
"ooooooooooo                XXXXXXXXXXXXXXXXXXXXXXXXXXXXXXXX                        ooooooooooooooooooooooooooooooooooooooooooooo",
"ooooooooooo                XXXXXXXXXXXXXXXXXXXXXXXXXXXXXXXXXX                        ooooooooooooooooooooooooooooooooooooooooooo",
"oooooooooo               XXXXXXXXXXXXXXXXXXXXXXXXXXXXXXXXXXXXXX                        ooooooooooooooooooooooooooooooooooooooooo",
"oooooooooo             XXXXXXXXXXXXXXXXXXXXXXXXXXXXXXXXXXXXXXXXXX                        ooooooooooooooooooooooooooooooooooooooo",
"ooooooooo            XXXXXXXXXXXXXXXXXXXXXXXXXXXXXXXXXXXXXXXXXXXXXX                        ooooooooooooooooooooooooooooooooooooo",
"ooooooooo            XXXXXXXXXXXXXXXXXXXXXXXXXXXXXXXXXXXXXXXXXXXXXXXX                        ooooooooooooooooooooooooooooooooooo",
"oooooooo            XXXXXXXXXXXXXXXXXXXXXXXXXXXXXXXXXXXXXXXXXXXXXXXXXXX                        ooooooooooooooooooooooooooooooooo",
"oooooooo            XXXXXXXXXXXXXXXXXXX@@@@@@@@@@XXXXXXXXXXXXXXXXXXXXXXXX                        ooooooooooooooooooooooooooooooo",
"oooooooo           XXXXXXXXXXXXXXXXXX@@@@@@@@@@@@@@XXXXXXXXXXXXXXXXXXXXXXXX                        ooooooooooooooooooooooooooooo",
"oooooooo           XXXXXXXXXXXXXXXX@@@@@@@@@@@@@@@@@@XXXXXXXXXXXXXXXXXXXXXXXX                        ooooooooooooooooooooooooooo",
"oooooooo          XXXXXXXXXXXXXXX@@@@@@@@@@@@@@@@@@@@@@XXXXXXXXXXXXXXXXXXXXXXXX                        ooooooooooooooooooooooooo",
"oooooooo          XXXXXXXXXXXXX@@@@@@@@@@@@@@@@@@@@@@@@@@XXXXXXXXXXXXXXXXXXXXXXXX                        ooooooooooooooooooooooo",
"oooooooo         XXXXXXXXXXXX@@@@@@@@@@@@@@@@@@@@@@@@@@@@@@XXXXXXXXXXXXXXXXXXXXXXXX                        ooooooooooooooooooooo",
"oooooooo         XXXXXXXXXXXX@@@@@@@@@@@@@@@@@@@@@@@@@@@@@@XXXXXXXXXXXXXXXXXXXXXXXXXX                      ooooooooooooooooooooo",
"oooooooo        XXXXXXXXXXXX@@@@@@@@@@@@@@@@@@@@@@@@@@@@@@@@XXXXXXXXXXXXXXXXXXXXXXXXXXX                     oooooooooooooooooooo",
"oooooooo        XXXXXXXXXXXX@@@@@@@@@@@OOOOOOOOOO@@@@@@@@@@@XXXXXXXXXXXXXXXXXXXXXXXXXXXXX                   oooooooooooooooooooo",
"ooooooo         XXXXXXXXXXX@@@@@@@@@@OOOOOOOOOOOOOO@@@@@@@@@@XXXXXXXXXXXXXXXXXXXXXXXXXXXXXX                  ooooooooooooooooooo",
"ooooooo         XXXXXXXXXXX@@@@@@@@OOOOOOOOOOOOOOOOOO@@@@@@@@XXXXXXXXXXXXXXXXXXXXXXXXXXXXXXXX                ooooooooooooooooooo",
"oooooo          XXXXXXXXXX@@@@@@@@OOOOOOOOOOOOOOOOOOOOO@@@@@@@XXXXXXXXXXXXXXXXXXXXXXXXXXXXXXXXX                ooooooooooooooooo",
"oooooo          XXXXXXXXXX@@@@@@@@OOOOOOOOOOOOOOOOOOOOOOO@@@@@XXXXXXXXXXXXXXXXXXXXXXXXXXXXXXXXXXX                ooooooooooooooo",
"ooooo           XXXXXXXXX@@@@@@@@OOOOOOOOOOOOOOOOOOOOOOOOOO@@@@XXXXXXXXXXXXXXXXXXXXXXXXXXXXXXXXXXXX                ooooooooooooo",
"ooo             XXXXXXXXX@@@@@@@@OOOOOOOOOOOOOOOOOOOOOOOOOOOO@@XXXXXXXXXXXXXXXXXXXXXXXXXXXXXXXXXXXX                ooooooooooooo",
"o               XXXXXXXX@@@@@@@@OOOOOOOOOOOOOOOOOOOOOOOOOOOOOOO@XXXXXXXXXXXXXXXXXXXXXXXXXXXXXXXXXXXX                oooooooooooo",
"                XXXXXXXX@@@@@@@@OOOOOOOOOOOXXOOOOOOOOOOOOOOOOOOOOXXXXXXXXXXXXXXXXXXXXXXXXXXXXXXXXXXX                oooooooooooo",
"               XXXXXXXXX@@@@@@@@OOOOOOOOOXXXXXXOOOOOOOOOOOOOOOOOOOOXXXXXXXXXXXXXXXXXXXXXXXXXXXXXXXXXX                ooooooooooo",
"               XXXXXXXXX@@@@@@@@OOOOOOOOOXXXXXXXXOOOOOOOOOOOOOOOOOOOOXXXXXXXXXXXXXXXXXXXXXXXXXXXXXXXX                ooooooooooo",
"              XXXXXXXXXX@@@@@@@@OOOOOOOOXXXXXXXXXXOOOOOOOOOOOOOOOOOOOOOXXXXXXXXXXXXXXXXXXXXXXXXXXXXXXXX                ooooooooo",
"              XXXXXXXXXX@@@@@@@@OOOOOOOOXXXXXXXXXXOOOOOOOOOOOOOOOOOOOOOOOXXXXXXXXXXXXXXXXXXXXXXXXXXXXXXXX                ooooooo",
"             XXXXXXXXXXX@@@@@@@@OOOOOOOOXXXXXXXXXXXOOOOOOOOOOOOOOOOOOOOOOOOXXXXXXXXXXXXXXXXXXXXXXXXXXXXXXXX                ooooo",
"             XXXXXXXXXXX@@@@@@@@OOOOOOOOXXXXXXXXXXXOOOOOOOOOOOOOOOOOOOOOOOOOOXXXXXXXXXXXXXXXXXXXXXXXXXXXXXX                  ooo",
"            XXXXXXXXXXXX@@@@@@@@OOOOOOOOXXXXXXXXXXXXOOOOOOOOOOOOOOOOOOOOOOOOOOOXXXXXXXXXXXXXXXXXXXXXXXXXXXXX                   o",
"            XXXXXXXXXXXX@@@@@@@@OOOOOOOOXXXXXXXXXXXXOOOOOOOOOOOOOOOOOOOOOOOOOOOOOOOOOXXXXXXXXXXXXXXXXXXXXXXX                    ",
"           XXXXXXXXXXXXX@@@@@@@@OOOOOOOOXXXXXXXXXXXXXOOOOOOOOOOOOOOOOOOOOOOOOOOOOOOOOOOXXXXXXXXXXXXXXXXXXXXXX                   ",
"           XXXXXXXXXXXXX@@@@@@@@OOOOOOOOXXXXXXXXXXXXXOOOOOOOOOOOOOOOOOOOOOOOOOOOOOOOOOOXXXXXXXXXXXXXXXXXXXXXX                   ",
"          XXXXXXXXXXXXXX@@@@@@@@OOOOOOOOXXXXXXXXXXXXXXXOOOOOOOOOOOOOOOOOOOOOOOOOOOOOOOOOXXXXXXXXXXXXXXXXXXXXXXX                 ",
"          XXXXXXXXXXXXXX@@@@@@@@OOOOOOOOXXXXXXXXXXXXXXXXXOOOOOOOOOOOOOOOOOOOOOOOOOOOOOOOXXXXXXXXXXXXXXXXXXXXXXXXX               ",
"         XXXXXXXXXXXXXXX@@@@@@@@OOOOOOOOXXXXXXXXXXXXXXXXXXXOOOOOOOOOOOOOOOOOOOOOOOOOOOOXXXXXXXXXXXXXXXXXXXXXXXXXXXX             ",
"         XXXXXXXXXXXXXXX@@@@@@@@OOOOOOOOXXXXXXXXXXXXXXXXXXXXXOOOOOOOOOOOOOOOOOOOOOOOOOOXXXXXXXXXXXXXXXXXXXXXXXXXXXXXX           ",
"        XXXXXXXXXXXXXXXX@@@@@@@@OOOOOOOOXXXXXXXXXXXXXXXXXXXXXXXOOOOOOOOOOOOOOOOOOOOOOXXXXXXXXXXXXXXXXXXXXXXXXXXXXXXXXX          ",
"        XXXXXXXXXXXXXXXX@@@@@@@@OOOOOOOOXXXXXXXXXXXXXXXXXXXXXXXXXXXXXXXXXXXXXXXXXXXXXXXXXXXXXXXXXXXXXXXXXXXXXXXXXXXXXX          ",
"        XXXXXXXXXXXXXXXXX@@@@@@@OOOOOOOXXXXXXXXXXXXXXXXXXXXXXXXXXXXXXXXXXXXXXXXXXXXXXXXXXXXXXXXXXXXXXXXXXXXXXXXXXXXXXXX         ",
"        XXXXXXXXXXXXXXXXX@@@@@@@OOOOOOOXXXXXXXXXXXXXXXXXXXXXXXXXXXXXXXXXXXXXXXXXXXXXXXXXXXXXXXXXXXXXXXXXXXXXXXXXXXXXXXX         ",
"        XXXXXXXXXXXXXXXXXX@@@@@@OOOOOOXXXXXXXXXXXXXXXXXXXXXXXXXXXXXXXXXXXXXXXXXXXXXXXXXXXXXXXXXXXXXXXXXXXXXXXXXXXXXXXXXX        ",
"        XXXXXXXXXXXXXXXXXX@@@@@@OOOOOOXXXXXXXXXXXXXXXXXXXXXXXXXXXXXXXXXXXXXXXXXXXXXXXXXXXXXXXXXXXXXXXXXXXXXXXXXXXXXXXXXX        ",
"        XXXXXXXXXXXXXXXXXXX@@@@@OOOOOXXXXXXXXXXXXXXXXXXXXXXXXXXXXXXXXXXXXXXXXXXXXXXXXXXXXXXXXXXXXXXXXXXXXXXXXXXXXXXXXXX         ",
"        XXXXXXXXXXXXXXXXXXXXX@@@OOOXXXXXXXXXXXXXXXXXXXXXXXXXXXXXXXXXXXXXXXXXXXXXXXXXXXXXXXXXXXXXXXXXXXXXXXXXXXXXXXXXXXX         ",
"        XXXXXXXXXXXXXXXXXXXXXXX@OXXXXXXXXXXXXXXXXXXXXXXXXXXXXXXXXXXXXXXXXXXXXXXXXXXXXXXXXXXXXXXXXXXXXXXXXXXXXXXXXXXXX           ",
"        XXXXXXXXXXXXXXXXXXXXXXXXXXXXXXXXXXXXXXXXXXXXXXXXXXXXXXXXXXXXXXXXXXXXXXXXXXXXXXXXXXXXXXXXXXXXXXX.........                ",
"         XXXXXXXXXXXXXXXXXXXXXXXXXXXXXXXXXXXXXXXXXXXXXXXXXXXXXXXXXXXXXXXXXXXXXXXXXXXXXXXXXXXXXXXXXXXX..........                 ",
"         XXXXXXXXXXXXXXXXXXXXXXXXXXXXXXXXXXXXXXXXXXXXXXXXXXXXXXXXXXXXXXXXXXXXXXXXXXXXXXXXXXXXXXXXXX............                 ",
"          XXXXXXXXXXXXXXXXXXXXXXXXXXXXXXXXXXXXXXXXXXXXXXXXXXXXXXXXXXXXXXXXXXXXXXXXXXXXXXXXXXXXXXX.............                  ",
"          XXXXXXXXXXXXXXXXXXXXXXXXXXXXXXXXXXXXXXXXXXXXXXXXXXXXXXXXXXXXXXXXXXXXXXXXXXXXXXXXXXXXX...............                  ",
"           XXXXXXXXXXXXXXXXXXXXXXXXXXXXXXXXXXXXXXXXXXXXXXXXXXXXXXXXXXXXXXXXXXXXXXXXXXXXXXXXXX................                   ",
"             XXXXXXXXXXXXXXXXXXXXXXXXXXXXXXXXXXXXXXXXXXXXXXXXXXXXXXXXXXXXXXXXXXXXXXXXXXXXXX..................                   ",
"               XXXXXXXXXXXXXXXXXXXXXXXXXXXXXXXXXXXXXXXXXXXXXXXXXXXXXXXXXXXXXXXXXXXXXXXXXX...................                    ",
"                        .................XXXXXXXXXXXXXXXXXXXXXXXXXXXXXX.....................................                   +",
"                         ..................XXXXXXXXXXXXXXXXXXXXXXXXXX......................................                  +++",
"                         ....................XXXXXXXXXXXXXXXXXXXXXX........................................                +++++",
"                          .....................XXXXXXXXXXXXXXXXXX........................................                +++++++",
"                          .......................XXXXXXXXXXXXXX........................................                +++++++++",
"                           ........................XXXXXXXXXX........................................                +++++++++++",
"                             ........................XXXXXX........................................                  +++++++++++",
"                               ........................XX........................................                   ++++++++++++",
"+                                ..............................................                                     ++++++++++++",
"+++                                ..........................................                                      +++++++++++++",
"+++++                                ......................................                                        +++++++++++++",
"+++++++                                ..................................                                        +++++++++++++++",
"+++++++++                                ..............................                                        +++++++++++++++++",
"+++++++++++                                ..........................                                        +++++++++++++++++++",
"+++++++++++++                                ......................                                        +++++++++++++++++++++",
"+++++++++++++++                                ..................                                        +++++++++++++++++++++++",
"o++++++++++++++++++++++++                                                              ++++++++++++++++++++++++++++++++ooooooooo",
"ooo++++++++++++++++++++++++                                                          ++++++++++++++++++++++++++++++++ooooooooooo",
"ooooo++++++++++++++++++++++++                                                      ++++++++++++++++++++++++++++++++ooooooooooooo",
"ooooooo++++++++++++++++++++++++                                                  ++++++++++++++++++++++++++++++++ooooooooooooooo",
"ooooooooo++++++++++++++++++++++++                                              ++++++++++++++++++++++++++++++++ooooooooooooooooo",
"ooooooooooo++++++++++++++++++++++++                                          ++++++++++++++++++++++++++++++++ooooooooooooooooooo",
"ooooooooooooo++++++++++++++++++++++++                                      ++++++++++++++++++++++++++++++++ooooooooooooooooooooo",
"ooooooooooooooo++++++++++++++++++++++++                                  ++++++++++++++++++++++++++++++++ooooooooooooooooooooooo",
"ooooooooooooooooooooooooo++++++++++++++++++++++++++++++++++++++++++++++++++++++++++++++ooooooooooooooooooooooooooooooooooooooooo",
"ooooooooooooooooooooooooooo++++++++++++++++++++++++++++++++++++++++++++++++++++++++++ooooooooooooooooooooooooooooooooooooooooooo",
"ooooooooooooooooooooooooooooo++++++++++++++++++++++++++++++++++++++++++++++++++++++ooooooooooooooooooooooooooooooooooooooooooooo",
"ooooooooooooooooooooooooooooooo++++++++++++++++++++++++++++++++++++++++++++++++++ooooooooooooooooooooooooooooooooooooooooooooooo",
"ooooooooooooooooooooooooooooooooo++++++++++++++++++++++++++++++++++++++++++++++ooooooooooooooooooooooooooooooooooooooooooooooooo",
"ooooooooooooooooooooooooooooooooooo++++++++++++++++++++++++++++++++++++++++++ooooooooooooooooooooooooooooooooooooooooooooooooooo",
"ooooooooooooooooooooooooooooooooooooo++++++++++++++++++++++++++++++++++++++ooooooooooooooooooooooooooooooooooooooooooooooooooooo",
"ooooooooooooooooooooooooooooooooooooooo++++++++++++++++++++++++++++++++++ooooooooooooooooooooooooooooooooooooooooooooooooooooooo",
"oooooooooooooooooooooooooooooooooooooooooooooooooooooooooooooooooooooooooooooooooooooooooooooooooooooooooooooooooooooooooooooooo",
"oooooooooooooooooooooooooooooooooooooooooooooooooooooooooooooooooooooooooooooooooooooooooooooooooooooooooooooooooooooooooooooooo",
"oooooooooooooooooooooooooooooooooooooooooooooooooooooooooooooooooooooooooooooooooooooooooooooooooooooooooooooooooooooooooooooooo",
"oooooooooooooooooooooooooooooooooooooooooooooooooooooooooooooooooooooooooooooooooooooooooooooooooooooooooooooooooooooooooooooooo",
"oooooooooooooooooooooooooooooooooooooooooooooooooooooooooooooooooooooooooooooooooooooooooooooooooooooooooooooooooooooooooooooooo",
"oooooooooooooooooooooooooooooooooooooooooooooooooooooooooooooooooooooooooooooooooooooooooooooooooooooooooooooooooooooooooooooooo",
"oooooooooooooooooooooooooooooooooooooooooooooooooooooooooooooooooooooooooooooooooooooooooooooooooooooooooooooooooooooooooooooooo",
"oooooooooooooooooooooooooooooooooooooooooooooooooooooooooooooooooooooooooooooooooooooooooooooooooooooooooooooooooooooooooooooooo"
};
