/* XPM */
static char *SNAKE1750288232[] = {
/* columns rows colors chars-per-pixel */
"128 128 11 1 ",
"  c black",
". c #595652",
"X c #696A6A",
"o c #727170",
"O c #A72D2D",
"+ c #AC3232",
"@ c #D95763",
"# c #155BBD",
"$ c #847E87",
"% c #639BFF",
"& c #9BADB7",
/* pixels */
"######################################################++++++++++++++++++++######################################################",
"###################################################++++++++++++++++++++++++++++#################################################",
"################################################++++++++++++++++++++++++++++++++++##############################################",
"###############################################++++++++++++++++++++++++++++++++++++#############################################",
"##############################################++++++++++++++++++++++++++++++++++++++############################################",
"#############################################+++++++++++++++++++++++++++++++++++++++############################################",
"############################################+++++++++++++++++++++++++++++++++++++++++###########################################",
"############################################+++++++++++++++++++++++++++++++++++++++++###########################################",
"###########################################+++++++++++++++++++++++++++++++++++++++++++##########################################",
"##########################################++++++++++++++++++++++++++++++++++++++++++++##########################################",
"#########################################++++++++++++++++++++++++++++++++++++++++++++++#########################################",
"#########################################++++++++++++++++++++++++++++++++++++++++++++++#########################################",
"########################################++++++++++++++++++++++++++++++++++++++++++++++++########################################",
"########################################+++++++++++++++++++++++++++++++++++  +++++++++++########################################",
"#######################################++++++++++++++++++++++++++++++++++      +++++++++########################################",
"#######################################++++++++++++++++++++++++++++++++++      +++++++++########################################",
"#######################...............++++++++++++++++++++++++++++++++++        ++++++++########################################",
"#####################.................++++++++++++++++++++++++++++++++++        ++++++++########################################",
"###################..................++++++++++++++++++++++++++++++++++++      +++++++++########################################",
"##################...................++++++++++++++++++++++++++++++++++++      +++++++++########################################",
"##################..................+++++++++++++++++++++++++++++++++++++++  +++++++++++########################################",
"#################...................++++++++++++++++++++++++++++++++++++++++++++++++++++########################################",
"#################..................+++++++++++++++++++++++++++++++++++++++++++++++++++++########################################",
"################...................+++++++++++++++++++++++++++++++++++++++++++++++++++++########################################",
"################...................+++++++++++++++++++++++++++++++++++++++++++++++++++++########################################",
"###############...................++++++++++++++++++++++++++++++++++++++++++++++++++++++########################################",
"###############...................++++++++++++++++++++++++++++++++++++++++++++++++++++++########################################",
"##############...................o++++++++++++++++++++++++++++++++++++++++++++++++++++++########################################",
"##############.................ooo++++++++++++++++++++++++++++++++++++++++++++++++++++++########################################",
"#############................oooo++++++++++++++++++++++++++++++++++++++++++++++++++++++@########@@@@@@@@########################",
"#############................oooo++++++++++++++++++++++++++++++++++++++++++++++++++++@@@########@@@@@@@@########################",
"############................ooooo++++++++++++++++++++++++++++++++++++++++++++++++++@@@@@########@@@@@@@@########################",
"############................ooooo+++++++++++++++++++++++++++++++++++++++++++++++++@@@@@@########@@@@@@@@########################",
"###########................oooooo+++++++++++++++++++++++++++++++++++++++++++++++++@@@@@@########@@@@@@@@########################",
"###########................ooooo+++++++++++++++++++++++++++++++++++++++++++++++++@@@@@@@@######@@@@@@@@@########################",
"##########...............ooooooo+++++++++++++++++++++++++++++++++++++++++++++++++@@@@@@@@######@@@@@@@@@########################",
"##########.............ooooooooo++++++++++++++++++++++++++++++++++++++++++++++++@@@@@@@@@@@##@@@@@@@@@@@########################",
"#########............ooooooooooo+++++++++++++++++++++++++++++++++++++++++++++++..@@@@@@@@@@@@@@@@@@#############################",
"#########............ooooooooooo+++++++++++++++++++++++++++++++++++++++++++++......@@@@@@@@@@@@@@###############################",
"########............oooooooooooo+++++++++++++++++++++++++++++++++++++++++++..........@@@@@@@@@@#################################",
"########............oooooooooooo++++++++++++++++++++++++++++++++++++++++++............@@@@@@@....###############################",
"########...........ooooooooooooo++++++++++++++++++++++++++++++++++++++++++o...........@@@@@@@......#############################",
"########...........ooooooooooooo+++++++++++++++++++++++++++++++++++++++++oooo..........@@@@..........###########################",
"########..........oooooooooooooo+++++++++++++++++++++++++++++++++++++++++oooooo........@@@@............#########################",
"########..........ooooooooooooo&++++++++++++++++++++++++++++++++++++++++ooooooooo.......@@@@@@...........#######################",
"########.........oooooooooooo&&&&++++++++++++++++++++++++++++++++++++++oooooooooooo......@@@@@@@@@@@@@@@...#####################",
"########.........oooooooooooo&&&&++++++++++++++++++++++++++++++++++++oooooooooooooooo.....@@@@@@@@@@@@@@...#####################",
"########........oooooooooooo&&&&&++++++++++++++++++++++++++++++++++oooooooooooooooooooo....@@@@@@@@@@@@@....####################",
"########........oooooooooooo&&&&&+++++++++++++++++++++++++++++++++++ooooooooooooooooooooo....@@@@@@@@@@@....####################",
"#######.........ooooooooooo&&&&&&&+++++++++++++++++++++++++++++++++++oooooooooooooooooooooo..@@@@@@@@@@@.....###################",
"#######.........ooooooooooo&&&&&&&++++++++++++++++++++++++++++++++++++ooooooooooooooooooooooo..@@@@@@@@@.....###################",
"######..........oooooooooo&&&&&&&&$++++++++++++++++++++++++++++++++++++++++oooooooooooooooooooo..@@@@@@@.......#################",
"######..........oooooooooo&&&&&&&&$++++++++++++++++++++++++++++++++++++++++++++++oooooooooooooooo..@@@@@.........###############",
"#####...........ooooooooo&&&&&&&&$$$+++++++++++++++++++++++++++++++++++++++++++++++++oooooooooooooo................#############",
"###.............ooooooooo&&&&&&&&$$$++++++++++++++++++++++++++++++++++++++++++++++++++++ooooooooooo................#############",
"#...............oooooooo&&&&&&&&$$$$$++++++++++++++++++++++++++++++++++++++++++++++++++++++ooooooooo................############",
"................oooooooo&&&&&&&&$$$$$$++++++++++++++++++++++++++++++++++++++++++++++++++++++++oooooo................############",
"...............ooooooooo&&&&&&&&$$$$$$++++++++++++++++++++++++++++++++++++++++++++++++++++++++++ooooo................###########",
"...............ooooooooo&&&&&&&&$$$$$$$++++++++++++++++++++++++++++++++++++++++++++++++++++++++++oooo................###########",
"..............oooooooooo&&&&&&&&$$$$$$$++++++++++++++++++++++++++++++++++++++++++++++++++++++++++++oooo................#########",
"..............oooooooooo&&&&&&&&$$$$$$$$+++++++++++++++++++++++++++++++++++++++++++++++++++++++++++++oooo................#######",
".............ooooooooooo&&&&&&&&$$$$$$$$++++++++++++++++++++++++++++++++++++++++++++++++++++++++++++++++ooo................#####",
".............ooooooooooo&&&&&&&&$$$$$$$$o+++++++++++++++++++++++++++++++++++++++++++++++++++++++++++++++++o..................###",
"............oooooooooooo&&&&&&&&$$$$$$$$ooo++++++++++++++++++++++++++++++++++++++++++++++++++++++++++++++++o...................#",
"............oooooooooooo&&&&&&&&$$$$$$$$ooooo++++++++++++++++++++++++++++++++++++++++++++++++++++++++++++++O....................",
"...........ooooooooooooo&&&&&&&&$$$$$$$$oooooo+++++++++++++++++++++++++++++++++++++++++++++++++++++++++++++Oo...................",
"...........ooooooooooooo&&&&&&&&$$$$$$$$oooooo+++++++++++++++++++++++++++++++++++++++++++++++++++++++++++++OO...................",
"..........oooooooooooooo&&&&&&&&$$$$$$$$ooooooooo+++++++++++++++++++++++++++++++++++++++++++++++++++++++OOOOOoo.................",
"..........oooooooooooooo&&&&&&&&$$$$$$$$ooooooooooo++++++++++++++++++++++++++++++++++++++++++++++++++++++OOOOOooo...............",
".........ooooooooooooooo&&&&&&&&$$$$$$$$ooooooooooooooooo++++++++++++++++++++++++++++++++++++++++++++++++OOOOOooooo.............",
".........ooooooooooooooo&&&&&&&&$$$$$$$$oooooooooooooooooooo+++++++++++++++++++++++++++++++++++++++++++++OOOOOooooooo...........",
"........oooooooooooooooo&&&&&&&&$$$$$$$$ooooooooooooooooooooooo++++++++++++++++++++++++++++++++++++++++++OOOOOoooooooo..........",
"........oooooooooooooooo&&&&&&&&$$$$$$$$oooooooooooooooooooooooo++++++++++++++++++++++++++++++++++++OOOOOOOOOOoooooooo..........",
"........ooooooooooooooooo&&&&&&&$$$$$$$oooooooooooooooooooooooooo+++++++++++++++++++++++++++++++++++OOOOOOOOOOooooooooo.........",
"........ooooooooooooooooo&&&&&&&$$$$$$$ooooooooooooooooooooooooooo+++++++++++++++++++++++++++++++++++OOOOOOOOOooooooooo.........",
"........oooooooooooooooooo&&&&&&$$$$$$ooooooooooooooooooooooooooooo++++++++++++++++++++++++++++++++++OOOOOOOOOoooooooooo........",
"........oooooooooooooooooo&&&&&&$$$$$$oooooooooooooooooooooooooooooo++++++++++++++++++++++++++++++++++OOOOOOOOoooooooooo........",
"........oooooooOOOOOOOOOOO++++++++++$ooooooooooooooooooooooooooooooo++++++++++++++++++++++++++++++++++OOOOOOOOooooooooo.........",
"........oooooOOOOOOOOOOOOOOOOOO++++++++++ooooooooooooooooooooooooooo+++++++++++++++++++++++++++++++++OOOOOOOOOooooooooo.........",
"........oooOOOOOOOOOOOOOOOOOOOO++++++++++++++++++++++++ooooooooooo+++++++++++++++++++++++++++++++++++OOOOOOOOOooooooo...........",
"........oOOOOOOOOOOOOOOOOOOOOOO+++++++++++++++++++++++++++++++++++++++++++++++++++++++++++++++++++++OOOOOOOOOOXX................",
"........OOOOOOOOOOOOOOOOOOOOOOOO++++++++++++++++++++++++++++++++++++++++++++++++++++++++++++++++++++OOOOOOOOOOX.................",
".......OOOOOOOOOOOOOOOOOOOOOOOOOOOO++++++++++++++++++++++++++++++++++++++++++++++++++++++++++++++++OOOOOOOOOOXX.................",
"......OOOOOOOOOOOOOOOOOOOOOOOOOOOOOOO++++++++++++++++++++++++++++++++++++++++++++++++++++++++++++OOOOOOOOOOOOX..................",
".....OOOOOOOOOOOOOOOOOOOOOOOOOOOOOOOOOO++++++++++++++++++++++++++++++++++++++++++++++++++++++++OOOOOOOOOOOOOXX..................",
".....OOOOOOOOOOOOOOOOOOOOOOOOOOOOOOOOOOOO++++++++++++++++++++++++++++++++++++++++++++++++++++OOOOOOOOOOOOOOOX...................",
"......OOOOOOOOOOOOOOOOOOOOOOOOOOOOOOOOOOOOO++++++++++++++++++++++++++++++++++++++++++++++++OOOOOOOOOOOOOOOOXX...................",
".......OOOOOOOOOOOOOOOOOOOOOOOOOOOOOOOOOOOOOO++++++++++++++++++++++++++++++++++++++++++++OOOOOOOOOOOOOOOOOOX....................",
"........OOOOOOOOOOOOOOOOOOOOOOOOOOOOOOOOOOOOOOO+++++++++++++++++++++++++++++++++++++++++OOOOOOOOOOOOOOOOOOXX...................%",
".........OOOOOOOOOOOOOOOOOOOOOOOOOOOOOOOOOOOOOOOOOOOOOOOOOOOOOOOOOOOOOOOOOOOOOOOOOOOOOOOOOOOOOOOOOOOOOOOOOX..................%%%",
"...........OOOOOOOOOOOOOOOOOOOOOOOOOOOOOOOOOOOOOOOOOOOOOOOOOOOOOOOOOOOOOOOOOOOOOOOOOOOOOOOOOOOOOOOOOOOOOOXX................%%%%%",
".............OOOOOOOOOOOOOOOOOOOOOOOOOOOOOOOOOOOOOOOOOOOOOOOOOOOOOOOOOOOOOOOOOOOOOOOOOOOOOOOOOOOOOOOOOOOO................%%%%%%%",
"...............OOOOOOOOOOOOOOOOOOOOOOOOOOOOOOOOOOOOOOOOOOOOOOOOOOOOOOOOOOOOOOOOOOOOOOOOOOOOOOOOOOOOOOOO................%%%%%%%%%",
".................OOOOOOOOOOOOOOOOOOOOOOOOOOOOOOOOOOOOOOOOOOOOOOOOOOOOOOOOOOOOOOOOOOOOOOOOOOOOOOOOOOOO................%%%%%%%%%%%",
"...................OOOOOOOOOOOOOOOOOOOOOOOOOOOOOOOOOOOOOOOOOOOOOOOOOOOOOOOOOOOOOOOOOOOOOOOOOOOOOOOO..................%%%%%%%%%%%",
".....................OOOOOOOOOOOOOOOOOOOOOOOOOOOOOOOOOOOOOOOOOOOOOOOOOOOOOOOOOOOOOOOOOOOOOOOOOOOOO..................%%%%%%%%%%%%",
"%......................OOOOOOOOOOOOOOOOOOOOOOOOOOOOOOOOOOOOOOOOOOOOOOOOOOOOOOOOOOOOOOOOOOOOOOOOOOO..................%%%%%%%%%%%%",
"%%%................................XXXXXXXXXXXXXXXXXXXXXXXXXXXXXXXXXXXXXXXXXX......................................%%%%%%%%%%%%%",
"%%%%%................................XXXXXXXXXXXXXXXXXXXXXXXXXXXXXXXXXXXXXX........................................%%%%%%%%%%%%%",
"%%%%%%%................................XXXXXXXXXXXXXXXXXXXXXXXXXXXXXXXXXX........................................%%%%%%%%%%%%%%%",
"%%%%%%%%%................................XXXXXXXXXXXXXXXXXXXXXXXXXXXXXX........................................%%%%%%%%%%%%%%%%%",
"%%%%%%%%%%%................................XXXXXXXXXXXXXXXXXXXXXXXXXX........................................%%%%%%%%%%%%%%%%%%%",
"%%%%%%%%%%%%%................................XXXXXXXXXXXXXXXXXXXXXX........................................%%%%%%%%%%%%%%%%%%%%%",
"%%%%%%%%%%%%%%%................................XXXXXXXXXXXXXXXXXX........................................%%%%%%%%%%%%%%%%%%%%%%%",
"#%%%%%%%%%%%%%%%%%%%%%%%%..............................................................%%%%%%%%%%%%%%%%%%%%%%%%%%%%%%%%#########",
"###%%%%%%%%%%%%%%%%%%%%%%%%..........................................................%%%%%%%%%%%%%%%%%%%%%%%%%%%%%%%%###########",
"#####%%%%%%%%%%%%%%%%%%%%%%%%......................................................%%%%%%%%%%%%%%%%%%%%%%%%%%%%%%%%#############",
"#######%%%%%%%%%%%%%%%%%%%%%%%%..................................................%%%%%%%%%%%%%%%%%%%%%%%%%%%%%%%%###############",
"#########%%%%%%%%%%%%%%%%%%%%%%%%..............................................%%%%%%%%%%%%%%%%%%%%%%%%%%%%%%%%#################",
"###########%%%%%%%%%%%%%%%%%%%%%%%%..........................................%%%%%%%%%%%%%%%%%%%%%%%%%%%%%%%%###################",
"#############%%%%%%%%%%%%%%%%%%%%%%%%......................................%%%%%%%%%%%%%%%%%%%%%%%%%%%%%%%%#####################",
"###############%%%%%%%%%%%%%%%%%%%%%%%%..................................%%%%%%%%%%%%%%%%%%%%%%%%%%%%%%%%#######################",
"#########################%%%%%%%%%%%%%%%%%%%%%%%%%%%%%%%%%%%%%%%%%%%%%%%%%%%%%%%%%%%%%%#########################################",
"###########################%%%%%%%%%%%%%%%%%%%%%%%%%%%%%%%%%%%%%%%%%%%%%%%%%%%%%%%%%%###########################################",
"#############################%%%%%%%%%%%%%%%%%%%%%%%%%%%%%%%%%%%%%%%%%%%%%%%%%%%%%%#############################################",
"###############################%%%%%%%%%%%%%%%%%%%%%%%%%%%%%%%%%%%%%%%%%%%%%%%%%%###############################################",
"#################################%%%%%%%%%%%%%%%%%%%%%%%%%%%%%%%%%%%%%%%%%%%%%%#################################################",
"###################################%%%%%%%%%%%%%%%%%%%%%%%%%%%%%%%%%%%%%%%%%%###################################################",
"#####################################%%%%%%%%%%%%%%%%%%%%%%%%%%%%%%%%%%%%%%#####################################################",
"#######################################%%%%%%%%%%%%%%%%%%%%%%%%%%%%%%%%%%#######################################################",
"################################################################################################################################",
"################################################################################################################################",
"################################################################################################################################",
"################################################################################################################################",
"################################################################################################################################",
"################################################################################################################################",
"################################################################################################################################",
"################################################################################################################################"
};
