/* XPM */
static char *result[] = {
/* columns rows colors chars-per-pixel */
"128 128 2 1 ",
"  c #155BBD",
". c #639BFF",
/* pixels */
"                                                                                                                                ",
"                                                                                                                                ",
"                                                                                                                                ",
"                                                                                                                                ",
"                                                                                                                                ",
"                                                                                                                                ",
"                                                                                                                                ",
"                                                                                                                                ",
"                                           ..........                                                                           ",
"                                         ..............                                                                         ",
"                                       ..................                                                                       ",
"                                      ....................                                                                      ",
"                                      ....................                                                                      ",
"                                     ......................                                                                     ",
"                                   ..........................                                                                   ",
"                                 .............................                                                                  ",
"                           ....................  .............                                                                  ",
"                         ....................      ............                                                                 ",
"                       ....................          ..........                                                                 ",
"                      ....................            ..........                                                                ",
"                      ....................            ..........                                                                ",
"                     ....................              ........                                                                 ",
"                   ....................                  ......                                                                 ",
"                  ...................                      ..                                                                   ",
"                  .............                                                                                                 ",
"                 ............                                                                                                   ",
"                 ..........                                                                                                     ",
"                ..........                                                                                                      ",
"                ..........                                                                                                      ",
"                 ........                                                                                                       ",
"                 ......                                                                                                         ",
"                   ..                                                                                                           ",
"                                                                                           ..                                   ",
"                                                                                         ......                                 ",
"                                                                                       ..........                               ",
"                                                                                      ............                              ",
"                                                                                      ............                              ",
"                                                                                     ..............                             ",
"                                                                                   ..................                           ",
"                                                                                  ....................                          ",
"                                                                                  .........  .........                          ",
"                                                                                 ........      ........                         ",
"                                                                               ..........      ..........                       ",
"                                                                              ..........        ..........                      ",
"                                                                              ..........        ..........                      ",
"                                                                             ..........          ..........                     ",
"                                                                           ............          ............                   ",
"                                                                         .............            .............                 ",
"                                                                   ...................            ...................           ",
"                                                                 ....................              ....................         ",
"                                                                 ..................                  ..................         ",
"                                                                ..................                    ..................        ",
"                                                                ..................                    ..................        ",
"                                                                 ................                      ................         ",
"                                                                 ..............                          ..............         ",
"                                                                   ..........                              ..........           ",
"                                                                                                                                ",
"                                                                                                                                ",
"                                                                                                                                ",
"                                                                                                                                ",
"                                                                                                                                ",
"                                                                                                                                ",
"                                                                                                                                ",
"                                                                                                                                ",
"                                                                                                                                ",
"                                                                                                                                ",
"                                                                                                                                ",
"                                                                                                                                ",
"                                                                                                                                ",
"                                                                                                                                ",
"                                                                                                                                ",
"                                                                                                                                ",
"                                                                                                                                ",
"                                                                                                                                ",
"                                                                                                                                ",
"                                                                                                                                ",
"                                                                                                                                ",
"                                                                                                                                ",
"                                                                                                                                ",
"                                                                                                                                ",
"                                   ..........                                                                                   ",
"                                 ..............                                                                                 ",
"                               ..................                                                                               ",
"                              ....................                                                                              ",
"                              ....................                                                                              ",
"                             ......................                                                                             ",
"                           ..........................                                                                           ",
"                          ............................                                                                          ",
"                          .............  .............                                                                          ",
"                         ............      ............                                                                         ",
"                       ............          ............                                                                       ",
"                      ............            ............                                                                      ",
"                      ............            ............                                                                      ",
"                     ............              ............                                                                     ",
"                   ............                  ............                                                                   ",
"                  ............                    .............                                                                 ",
"                  ............                    ...........................                                                   ",
"                 ............                      ............................                                                 ",
"                 ..........                          ..........................                                                 ",
"                ..........                            ..........................                                                ",
"                ..........                            ..........................                                                ",
"                 ........                              ........................                                                 ",
"                 ......                                  ......................                                                 ",
"                   ..                                      ..................                                                   ",
"                                                                                                                                ",
"                                                                                                                                ",
"                                                                                                                                ",
"                                                                                                                                ",
"                                                                                                                                ",
"                                                                                                                                ",
"                                                                                                                                ",
"                                                                                                                                ",
"                                                                                                                                ",
"                                                                                                                                ",
"                                                                                                                                ",
"                                                                                                                                ",
"                                                                                                                                ",
"                                                                                                                                ",
"                                                                                                                                ",
"                                                                                                                                ",
"                                                                                                                                ",
"                                                                                                                                ",
"                                                                                                                                ",
"                                                                                                                                ",
"                                                                                                                                ",
"                                                                                                                                ",
"                                                                                                                                ",
"                                                                                                                                "
};
